<?xml version="1.0" standalone="no"?>
<!DOCTYPE svg PUBLIC "-//W3C//DTD SVG 20010904//EN"
 "http://www.w3.org/TR/2001/REC-SVG-20010904/DTD/svg10.dtd">
<svg version="1.0" xmlns="http://www.w3.org/2000/svg"
 width="626.000000pt" height="626.000000pt" viewBox="0 0 626.000000 626.000000"
 preserveAspectRatio="xMidYMid meet">

<g transform="translate(0.000000,626.000000) scale(0.100000,-0.100000)"
fill="#000000" stroke="none">
<path d="M2975 6014 c-238 -37 -431 -204 -474 -412 -32 -152 -2 -357 75 -509
24 -48 44 -101 45 -118 1 -16 5 -41 9 -55 6 -18 8 -7 9 41 1 74 9 90 28 57 13
-21 13 -19 8 19 -6 36 -2 48 22 83 15 22 31 40 35 40 5 0 20 -14 35 -31 16
-17 37 -36 48 -42 12 -6 5 7 -17 31 -21 23 -38 44 -38 47 0 3 16 5 35 5 33 0
35 -2 29 -25 -5 -21 -3 -24 11 -18 15 5 17 2 12 -16 -6 -26 11 -36 48 -27 18
5 27 15 32 36 3 17 8 30 11 30 3 0 21 -15 40 -32 l34 -33 -15 31 c-21 42 -73
84 -102 84 -13 0 -27 5 -31 11 -3 6 -15 9 -25 6 -10 -3 -23 1 -29 8 -7 9 0 19
31 40 l41 29 58 -32 c60 -33 85 -39 95 -22 3 5 -22 24 -57 41 -76 39 -87 28
167 156 207 104 285 153 332 207 l31 35 48 -137 c53 -151 57 -185 43 -439 -3
-62 -3 -110 1 -108 8 5 40 91 40 108 0 5 -7 7 -15 3 -8 -3 -15 -3 -15 -1 0 22
45 162 55 170 15 13 50 113 64 183 42 208 -38 403 -192 467 -42 17 -113 20
-152 5 -22 -8 -33 -6 -63 15 -73 50 -246 84 -347 69z m14 -588 c-2 -2 -15 -9
-29 -15 -24 -11 -24 -11 -6 3 16 13 49 24 35 12z m-109 -60 c0 -2 -7 -7 -16
-10 -8 -3 -12 -2 -9 4 6 10 25 14 25 6z m-50 -29 c0 -2 -12 -14 -27 -28 l-28
-24 24 28 c23 25 31 32 31 24z m86 -198 c3 -6 1 -16 -5 -22 -9 -9 -14 -8 -21
3 -9 15 -4 30 10 30 5 0 12 -5 16 -11z"/>
<path d="M3390 5316 c-70 -27 -141 -67 -135 -76 11 -18 35 -11 111 31 72 40
78 41 137 35 47 -5 58 -4 44 5 -29 17 -118 20 -157 5z"/>
<path d="M3569 5233 c-1 -5 -1 -11 0 -15 0 -5 -3 -8 -9 -8 -5 0 -10 5 -10 10
0 16 -64 11 -89 -7 -14 -9 -21 -11 -17 -4 6 9 0 10 -21 5 -49 -11 -104 -48
-126 -84 l-22 -35 36 28 c43 33 44 33 46 5 2 -27 28 -48 60 -48 18 0 22 5 20
23 -1 14 3 21 12 19 9 -2 12 5 9 23 -5 23 -2 25 28 25 43 0 43 -13 0 -56 -19
-19 -31 -34 -27 -34 12 0 92 77 105 101 21 41 26 59 16 59 -6 0 -11 -3 -11 -7z
m-174 -101 c0 -18 -20 -15 -23 4 -3 10 1 15 10 12 7 -3 13 -10 13 -16z"/>
<path d="M1446 4870 c-115 -26 -140 -40 -131 -70 2 -8 32 -139 65 -290 34
-151 67 -278 73 -283 7 -4 26 -5 44 -2 30 5 31 4 38 -34 6 -37 9 -40 45 -46
22 -4 50 -15 62 -25 l23 -18 -1 80 c0 74 1 79 23 84 26 7 53 44 31 44 -7 0
-53 -9 -102 -20 -105 -23 -96 -22 -96 -12 0 5 39 17 88 27 97 20 134 34 90 35
-23 0 -131 -21 -180 -36 -10 -3 -18 -1 -18 5 0 5 44 19 98 31 53 12 101 26
107 31 14 14 -16 11 -110 -11 -95 -22 -105 -23 -105 -12 0 4 46 17 101 29 56
13 104 25 107 28 16 16 -17 15 -98 -4 -99 -23 -120 -25 -120 -13 0 4 46 17
101 29 56 13 104 25 107 28 15 15 -15 14 -97 -5 -50 -11 -99 -20 -108 -20 -34
1 8 17 92 35 44 9 87 21 95 26 26 15 -28 10 -118 -10 -45 -10 -84 -15 -87 -11
-8 12 1 15 97 35 87 18 117 29 107 40 -4 3 -45 -4 -93 -15 -93 -21 -130 -25
-122 -12 3 5 45 17 93 27 89 18 137 35 117 42 -6 2 -50 -6 -98 -17 -91 -21
-143 -26 -116 -11 8 4 53 16 100 26 47 9 92 21 100 26 27 15 -41 10 -125 -10
-44 -11 -82 -17 -84 -15 -11 10 20 22 99 39 95 19 132 34 88 35 -23 0 -131
-21 -180 -36 -10 -3 -18 -1 -18 5 0 5 44 19 98 31 53 12 101 26 107 31 15 15
-27 11 -120 -12 -79 -18 -109 -19 -92 -3 3 3 45 15 93 25 96 22 137 38 94 39
-22 0 -51 -6 -177 -35 -13 -3 -23 -2 -23 3 0 5 45 19 100 32 55 12 103 26 106
31 8 13 -17 11 -111 -11 -97 -23 -105 -23 -105 -12 0 5 45 19 100 32 55 12
103 26 106 31 8 14 -16 11 -108 -11 -91 -22 -117 -25 -102 -11 5 4 53 18 106
30 54 12 100 27 103 32 9 13 -3 12 -100 -11 -95 -22 -109 -24 -101 -12 3 5 45
17 93 27 109 22 122 28 91 42 -18 8 -51 4 -142 -17z"/>
<path d="M3556 4854 c-15 -57 -79 -174 -132 -238 -36 -44 -54 -74 -54 -93 0
-27 1 -27 49 21 59 58 92 116 121 214 26 87 36 91 15 6 -25 -95 -79 -195 -134
-247 -28 -26 -46 -47 -40 -47 27 0 102 89 139 164 44 89 73 217 53 237 -7 7
-12 3 -17 -17z"/>
<path d="M3180 4840 c-12 -8 -11 -10 8 -10 12 0 22 5 22 10 0 13 -11 13 -30 0z"/>
<path d="M3060 4836 c0 -2 9 -6 20 -9 11 -3 18 -1 14 4 -5 9 -34 13 -34 5z"/>
<path d="M5458 4756 c-30 -24 -66 -59 -80 -78 -19 -25 -46 -42 -100 -62 -40
-16 -80 -34 -88 -41 -18 -14 -264 -88 -495 -149 -265 -69 -293 -83 -427 -214
-83 -81 -88 -88 -88 -127 0 -57 53 -161 94 -186 39 -24 174 -26 256 -4 68 18
70 16 107 -104 l26 -84 41 47 c23 26 68 62 101 79 l60 32 5 68 c3 37 4 67 3
67 -1 0 -23 -13 -50 -30 -26 -16 -60 -32 -75 -36 -23 -5 -28 -3 -28 13 0 31
80 107 128 121 24 7 46 20 49 28 8 22 362 246 392 249 9 0 47 18 86 38 64 34
76 37 155 38 47 0 102 6 123 12 l37 12 -54 115 c-29 63 -66 143 -82 177 -16
34 -32 62 -36 63 -3 0 -30 -20 -60 -44z"/>
<path d="M3025 4715 c-16 -8 -40 -14 -52 -15 -13 0 -23 -2 -23 -3 0 -11 89
-101 112 -113 52 -27 142 -12 176 29 7 8 -7 5 -36 -9 -36 -18 -56 -21 -86 -16
-57 10 -59 32 -3 32 25 0 66 9 91 20 26 11 46 15 46 9 0 -6 13 2 30 17 33 32
33 42 -1 24 -17 -10 -34 -10 -76 0 -46 11 -51 15 -41 29 11 14 10 14 -7 0 -11
-9 -45 -19 -75 -23 -44 -5 -51 -4 -36 5 11 7 33 12 50 11 22 -1 26 2 16 8 -20
13 -49 11 -85 -5z m193 -40 c10 -10 -27 -34 -64 -41 -36 -7 -116 15 -116 31 1
6 11 13 24 17 27 8 146 3 156 -7z"/>
<path d="M2835 4582 c-7 -54 -41 -132 -77 -179 -14 -18 -70 -66 -125 -107 -55
-41 -137 -114 -181 -162 -45 -47 -96 -94 -114 -104 -49 -25 -95 -92 -120 -173
-21 -66 -23 -87 -19 -247 7 -288 5 -393 -8 -438 -12 -41 -11 -45 35 -130 105
-196 223 -430 240 -477 l19 -50 8 60 c7 56 -7 318 -19 336 -3 5 1 6 9 3 22 -8
94 -197 111 -291 22 -119 39 -346 31 -428 -19 -210 -53 -313 -198 -596 -155
-302 -182 -413 -181 -729 0 -182 4 -242 28 -390 20 -134 66 -461 66 -477 0 -2
324 -3 719 -3 l719 0 6 48 c3 26 8 75 12 109 l6 61 66 24 67 23 29 185 c25
163 29 214 30 425 1 221 -1 247 -23 335 -32 130 -67 214 -177 428 -148 290
-194 470 -194 765 0 125 19 349 40 482 5 33 10 63 10 68 0 4 7 7 16 7 22 0
122 98 144 140 54 107 56 297 3 437 -13 35 85 -70 112 -118 31 -57 46 -169 34
-255 -10 -71 -48 -153 -98 -207 -40 -44 -41 -45 -41 -118 1 -86 15 -310 26
-388 l7 -54 18 60 c32 104 122 220 252 328 l48 40 -16 115 c-9 63 -20 225 -25
360 -18 494 -50 620 -174 675 -41 18 -226 55 -276 55 -4 0 -11 13 -15 28 -5
23 -13 29 -51 38 l-45 10 7 -135 c10 -210 -29 -353 -127 -464 -156 -178 -414
-196 -561 -40 -27 28 -27 29 -13 83 48 176 64 438 47 760 -11 202 -20 246 -58
292 l-22 27 -7 -47z m-251 -360 c-55 -53 -112 -112 -127 -131 -16 -18 -30 -31
-34 -28 -9 10 53 78 154 169 54 49 100 88 103 88 3 -1 -40 -44 -96 -98z m316
-327 c-10 -133 -42 -333 -57 -358 -3 -5 -9 -5 -14 0 -6 6 -4 35 5 74 20 90 34
193 46 342 5 70 13 140 17 155 14 49 15 -51 3 -213z m-382 165 c-7 -10 -14
-17 -17 -15 -4 4 18 35 25 35 2 0 -1 -9 -8 -20z m299 -1298 c-10 -10 -17 -23
-17 -29 0 -6 -7 -16 -15 -23 -8 -7 -15 -10 -15 -6 0 14 52 88 57 82 4 -3 -1
-14 -10 -24z m304 -1 c-12 -16 -21 -35 -21 -43 0 -15 -43 -19 -56 -5 -11 10
38 59 53 52 8 -2 16 2 19 10 4 8 10 15 16 15 5 0 0 -13 -11 -29z m-107 -27
c-8 -11 -11 -24 -7 -29 5 -4 3 -6 -2 -2 -9 5 -11 24 -6 70 1 4 7 2 15 -5 11
-11 11 -16 0 -34z m164 9 c-6 -7 -8 -20 -4 -28 3 -8 0 -15 -5 -15 -7 0 -9 11
-7 25 3 14 1 25 -3 25 -5 0 -6 7 -3 15 5 11 9 12 19 2 9 -8 10 -16 3 -24z
m128 10 c-10 -10 -19 5 -10 18 6 11 8 11 12 0 2 -7 1 -15 -2 -18z m65 -13 c-4
-20 -14 -36 -23 -38 -22 -4 -30 24 -10 40 15 12 16 11 4 -4 -7 -9 -9 -19 -4
-22 13 -8 22 4 22 29 0 20 9 39 16 32 1 -1 -1 -18 -5 -37z m109 -5 c-6 -8 -8
-20 -4 -26 4 -7 3 -9 -3 -6 -6 4 -9 21 -8 39 4 45 4 45 16 25 8 -13 7 -22 -1
-32z m-568 9 c-2 -10 -4 -24 -4 -31 -1 -7 -5 -10 -10 -7 -5 3 -6 14 -3 25 4
10 2 19 -3 19 -16 0 -34 -28 -26 -42 5 -10 4 -11 -6 -1 -11 11 -10 17 10 38
27 28 47 28 42 -1z m-70 -1 c-5 -10 -11 -25 -14 -33 -2 -7 -7 -10 -10 -5 -8
14 9 55 22 55 7 0 8 -6 2 -17z m105 -16 c-8 -15 -17 -24 -20 -21 -3 4 1 17 10
30 20 32 27 25 10 -9z m296 23 c-21 -8 -28 -21 -24 -42 0 -5 -3 -8 -9 -8 -14
0 -12 12 6 38 8 12 23 22 32 21 12 0 11 -3 -5 -9z m197 1 c0 -6 -5 -13 -12
-17 -7 -4 -8 -3 -4 4 4 7 3 12 -2 12 -11 0 -26 -30 -23 -43 1 -5 -3 -6 -9 -2
-10 6 -7 17 13 43 11 14 37 16 37 3z m-143 -36 c-7 -17 -37 -21 -37 -4 0 5 5
7 10 4 6 -3 13 1 16 10 4 9 9 14 11 11 3 -3 3 -12 0 -21z"/>
<path d="M3070 2735 c-13 -14 -19 -25 -13 -25 12 0 48 38 41 45 -2 3 -15 -6
-28 -20z"/>
<path d="M1605 4036 c9 -13 25 -26 37 -29 18 -5 17 -2 -8 24 -34 35 -51 38
-29 5z"/>
<path d="M1707 3979 c7 -7 15 -10 18 -7 3 3 -2 9 -12 12 -14 6 -15 5 -6 -5z"/>
<path d="M1630 3850 c-13 -8 -12 -10 3 -10 9 0 17 5 17 10 0 12 -1 12 -20 0z"/>
<path d="M1642 3771 c-18 -11 -5 -78 19 -102 23 -23 39 -24 84 -5 29 12 35 20
35 45 0 34 -8 41 -70 58 -55 15 -52 15 -68 4z"/>
<path d="M4885 3771 c-6 -5 -27 -14 -47 -20 -20 -7 -59 -32 -85 -56 -26 -25
-51 -45 -55 -45 -5 0 -8 -5 -8 -10 0 -6 19 3 42 20 22 16 47 30 55 30 7 0 40
13 73 30 42 21 58 34 54 45 -7 17 -16 19 -29 6z"/>
<path d="M4142 3730 c0 -19 2 -27 5 -17 2 9 2 25 0 35 -3 9 -5 1 -5 -18z"/>
<path d="M4930 3635 c-14 -8 -48 -19 -75 -26 -47 -10 -114 -53 -102 -65 3 -3
36 10 73 29 38 18 90 40 117 47 26 7 47 17 47 21 0 13 -32 10 -60 -6z"/>
<path d="M5015 3539 c-11 -4 -40 -8 -65 -9 -25 0 -56 -7 -70 -15 -14 -8 -42
-14 -62 -15 l-37 0 34 -57 c19 -32 40 -73 46 -92 11 -31 13 -33 49 -28 43 6
154 53 171 73 8 10 5 30 -11 79 -12 35 -25 67 -28 69 -4 2 -16 0 -27 -5z"/>
<path d="M4162 3275 c0 -16 2 -22 5 -12 2 9 2 23 0 30 -3 6 -5 -1 -5 -18z"/>
<path d="M1930 2910 c-40 -22 -37 -25 9 -9 17 6 31 15 31 20 0 11 2 12 -40
-11z"/>
<path d="M2542 2550 c0 -14 2 -19 5 -12 2 6 2 18 0 25 -3 6 -5 1 -5 -13z"/>
<path d="M3621 2414 c0 -11 3 -14 6 -6 3 7 2 16 -1 19 -3 4 -6 -2 -5 -13z"/>
</g>
</svg>
