<?xml version="1.0" standalone="no"?>
<!DOCTYPE svg PUBLIC "-//W3C//DTD SVG 20010904//EN"
 "http://www.w3.org/TR/2001/REC-SVG-20010904/DTD/svg10.dtd">
<svg version="1.0" xmlns="http://www.w3.org/2000/svg"
 width="500.000000pt" height="500.000000pt" viewBox="0 0 500.000000 500.000000"
 preserveAspectRatio="xMidYMid meet">

<g transform="translate(0.000000,500.000000) scale(0.100000,-0.100000)"
fill="#000000" stroke="none">
<path d="M2440 4033 c-14 -2 -32 -7 -40 -10 -8 -3 -24 -7 -35 -8 -42 -6 -124
-37 -128 -50 -4 -10 7 -10 56 1 34 7 75 17 90 23 49 19 300 13 410 -9 92 -19
241 -74 297 -110 54 -36 125 -84 130 -89 3 -4 25 -24 50 -46 l44 -40 -39 45
c-86 98 -247 201 -390 250 -117 40 -334 61 -445 43z"/>
<path d="M2510 3806 c-57 -15 -124 -60 -164 -109 -27 -34 -30 -44 -28 -100 3
-66 18 -127 32 -127 5 0 9 28 9 63 0 104 31 154 128 202 48 25 70 30 128 30
77 0 121 -16 189 -69 l40 -31 -19 33 c-22 36 -94 87 -153 108 -46 16 -103 16
-162 0z"/>
<path d="M2903 3720 c54 -146 58 -220 16 -305 -50 -100 -122 -157 -239 -186
-64 -17 -65 -17 -35 -28 17 -6 42 -18 57 -26 24 -14 31 -14 70 1 87 34 157 95
196 169 50 95 30 258 -44 356 -15 18 -24 27 -21 19z"/>
<path d="M1711 3496 c-7 -8 -15 -30 -18 -50 -3 -22 -10 -33 -17 -29 -6 3 -8 3
-4 -2 4 -4 4 -13 -1 -19 -14 -17 -39 -143 -46 -231 -7 -93 7 -228 34 -313 81
-252 297 -487 535 -582 128 -52 183 -62 336 -67 120 -4 162 -1 245 16 133 27
276 99 362 181 35 33 64 60 66 60 7 0 80 64 124 108 55 55 118 180 127 252 7
53 6 56 -16 57 -12 1 -31 -7 -41 -18 -12 -13 -22 -17 -26 -10 -4 5 -23 12 -42
14 -20 2 -42 8 -49 12 -7 4 -32 10 -54 11 -104 8 -156 17 -156 27 0 5 -14 7
-32 5 -37 -6 -58 -1 -58 14 0 14 -40 63 -51 63 -5 0 -14 7 -19 15 -19 30 -9
-5 17 -57 21 -44 27 -73 31 -154 5 -108 1 -123 -56 -224 -82 -142 -183 -205
-332 -205 -189 0 -322 103 -359 278 -17 80 -14 108 19 177 36 75 126 158 193
176 78 22 77 33 -3 75 -97 50 -168 118 -208 194 -18 35 -32 58 -32 51 0 -22
68 -141 88 -154 7 -5 10 -13 6 -18 -3 -6 3 -13 15 -16 12 -3 21 -9 21 -14 0
-5 -6 -7 -12 -5 -7 1 -9 1 -5 -2 4 -2 2 -11 -5 -20 -10 -14 -10 -15 2 -4 21
18 28 15 24 -14 -5 -45 -25 -83 -40 -77 -8 3 -14 2 -13 -3 3 -19 -14 -52 -24
-48 -7 2 -23 -12 -36 -31 -13 -19 -27 -35 -32 -35 -5 0 -9 -9 -9 -20 0 -18
-30 -29 -80 -29 -8 0 -24 -2 -35 -5 -11 -2 -23 -5 -27 -5 -5 -1 -8 -7 -8 -14
0 -7 -25 -21 -55 -31 -35 -11 -55 -23 -55 -32 0 -10 -8 -14 -24 -12 -13 1 -30
-3 -38 -10 -8 -6 -29 -15 -46 -18 -28 -6 -32 -4 -32 15 0 14 -4 20 -11 15 -7
-4 -10 -1 -7 7 2 7 -3 21 -11 31 -20 24 -48 139 -62 262 -10 88 -9 128 7 261
6 45 30 128 50 166 15 30 4 58 -15 35z"/>
<path d="M2243 3444 c3 -48 13 -89 30 -127 32 -70 52 -75 26 -7 -26 68 -25 94
2 50 12 -19 35 -51 51 -70 46 -56 48 -59 48 -70 0 -5 7 -10 15 -10 8 0 15 -3
15 -7 0 -5 14 -16 30 -25 17 -9 30 -24 30 -32 0 -17 62 -48 97 -48 13 0 20 -4
17 -9 -3 -5 0 -9 7 -9 7 0 20 -6 28 -14 14 -13 19 -12 39 4 l22 18 -127 64
c-156 77 -234 147 -273 243 -13 33 -32 74 -43 90 l-19 30 5 -71z"/>
<path d="M2350 3452 c0 -14 68 -122 77 -122 3 0 -2 10 -11 23 -9 12 -27 42
-41 67 -13 25 -24 39 -25 32z"/>
<path d="M3556 3385 c3 -16 12 -59 20 -95 16 -78 18 -175 4 -290 -23 -185 -70
-298 -200 -481 -89 -124 -68 -113 30 16 84 110 147 241 170 357 33 157 23 400
-20 498 -10 24 -10 24 -4 -5z"/>
<path d="M2505 2956 c-90 -29 -123 -47 -161 -88 -26 -27 -33 -46 -43 -113 -7
-44 -14 -89 -16 -99 -12 -57 83 -173 163 -201 52 -17 92 -20 92 -5 0 6 5 10
11 10 6 0 9 -7 5 -15 -7 -20 22 -20 99 0 122 32 194 124 181 231 -6 54 -57
186 -64 166 -4 -14 -68 57 -65 72 4 16 -80 66 -108 65 -13 0 -55 -11 -94 -23z"/>
<path d="M1820 2729 c0 -5 5 -7 10 -4 6 3 10 8 10 11 0 2 -4 4 -10 4 -5 0 -10
-5 -10 -11z"/>
<path d="M1895 2394 c12 -13 31 -24 41 -25 11 0 14 -3 6 -6 -8 -3 1 -15 24
-34 37 -29 58 -39 36 -17 -8 8 -8 15 -1 24 8 10 2 17 -26 29 -21 8 -44 15 -52
15 -8 0 -11 5 -8 10 3 6 1 10 -5 10 -6 0 -9 4 -6 8 2 4 -4 8 -14 9 -16 1 -15
-1 5 -23z"/>
<path d="M3254 2378 l-19 -23 23 19 c12 11 22 21 22 23 0 8 -8 2 -26 -19z"/>
<path d="M3098 2274 c-16 -8 -28 -17 -28 -19 0 -10 16 -4 40 15 30 23 25 25
-12 4z"/>
<path d="M2985 2215 c-16 -7 -23 -14 -15 -14 8 0 26 6 40 14 32 18 14 18 -25
0z"/>
<path d="M4083 1635 c0 -27 2 -38 4 -22 2 15 2 37 0 50 -2 12 -4 0 -4 -28z"/>
<path d="M2405 1650 c-3 -5 -1 -10 4 -10 6 0 11 5 11 10 0 6 -2 10 -4 10 -3 0
-8 -4 -11 -10z"/>
<path d="M3873 1643 c15 -2 37 -2 50 0 12 2 0 4 -28 4 -27 0 -38 -2 -22 -4z"/>
<path d="M3158 1633 c29 -2 74 -2 100 0 26 2 2 3 -53 3 -55 0 -76 -1 -47 -3z"/>
<path d="M3800 1620 c-11 -11 -20 -26 -19 -32 0 -7 5 -3 11 8 5 12 20 27 32
32 11 6 15 11 9 11 -7 1 -22 -8 -33 -19z"/>
<path d="M2352 1539 c-18 -32 -31 -59 -28 -59 7 0 69 111 64 115 -2 2 -18 -23
-36 -56z"/>
<path d="M4082 1550 c0 -14 2 -19 5 -12 2 6 2 18 0 25 -3 6 -5 1 -5 -13z"/>
<path d="M3912 1510 c-13 -21 -6 -25 18 -10 10 6 12 12 5 19 -7 7 -14 4 -23
-9z"/>
<path d="M3450 1499 c0 -11 4 -18 10 -14 5 3 7 12 3 20 -7 21 -13 19 -13 -6z"/>
<path d="M1210 1504 c0 -8 63 -35 76 -32 8 2 -5 10 -30 19 -25 9 -46 15 -46
13z"/>
<path d="M3300 1500 c-9 -6 -10 -10 -3 -10 6 0 15 5 18 10 8 12 4 12 -15 0z"/>
<path d="M1333 1463 c15 -2 39 -2 55 0 15 2 2 4 -28 4 -30 0 -43 -2 -27 -4z"/>
<path d="M3507 1278 c-14 -21 -17 -22 -39 -9 -21 13 -22 13 -9 -2 19 -23 48
-21 61 4 16 29 6 34 -13 7z"/>
</g>
</svg>
