<?xml version="1.0" standalone="no"?>
<!DOCTYPE svg PUBLIC "-//W3C//DTD SVG 20010904//EN"
 "http://www.w3.org/TR/2001/REC-SVG-20010904/DTD/svg10.dtd">
<svg version="1.0" xmlns="http://www.w3.org/2000/svg"
 width="626.000000pt" height="626.000000pt" viewBox="0 0 626.000000 626.000000"
 preserveAspectRatio="xMidYMid meet">

<g transform="translate(0.000000,626.000000) scale(0.100000,-0.100000)"
fill="#000000" stroke="none">
<path d="M2166 5785 c-10 -11 -16 -33 -16 -63 0 -40 48 -531 95 -972 8 -69 14
-137 14 -153 1 -33 19 -41 110 -52 l64 -7 -7 53 c-9 71 -33 228 -112 734 -66
425 -76 465 -116 473 -9 2 -23 -4 -32 -13z m33 -49 c6 -8 16 -54 22 -102 5
-49 14 -115 19 -148 5 -32 9 -61 8 -65 -2 -22 4 -29 25 -24 20 5 20 4 5 -8
-19 -16 -34 -89 -18 -89 6 0 10 -13 10 -29 0 -17 4 -32 8 -35 5 -3 7 -35 5
-71 -3 -45 0 -65 7 -60 11 7 13 -7 12 -77 -1 -31 3 -48 10 -48 27 0 -9 -19
-42 -22 l-35 -3 -12 115 c-6 63 -16 165 -22 225 -7 61 -14 137 -17 170 -3 33
-10 96 -15 140 -13 112 -12 145 5 145 7 0 19 -6 25 -14z m102 -805 l23 -18
-39 -7 c-44 -9 -66 10 -38 32 22 16 27 15 54 -7z m26 -63 c2 -66 6 -88 15 -88
6 0 6 -6 -1 -14 -9 -10 -8 -15 1 -19 8 -2 13 -21 13 -43 0 -38 -1 -39 -42 -45
-27 -3 -43 -1 -44 5 0 6 -2 20 -4 30 -2 11 -7 59 -11 107 l-6 87 28 5 c16 2
34 5 40 6 6 0 11 -14 11 -31z m50 -90 c-3 -7 -5 -2 -5 12 0 14 2 19 5 13 2 -7
2 -19 0 -25z m14 -208 c11 0 19 -4 19 -9 0 -11 -68 -3 -90 11 -10 6 -4 8 19 4
18 -3 42 -6 52 -6z"/>
<path d="M3942 5698 c-30 -38 -556 -1016 -554 -1033 1 -28 28 -46 234 -157
135 -72 191 -98 213 -96 27 3 36 15 105 143 42 77 168 308 280 514 193 356
202 376 189 399 -16 28 -401 242 -435 242 -12 0 -26 -6 -32 -12z m254 -112
c103 -57 194 -112 201 -122 10 -16 3 -36 -55 -141 -40 -75 -69 -118 -74 -110
-4 6 -2 14 4 18 6 4 9 12 6 20 -2 7 -21 -22 -42 -64 -21 -41 -36 -81 -33 -89
2 -7 -5 -31 -16 -53 -20 -39 -21 -39 -28 -15 -4 16 -7 19 -8 8 -1 -10 -1 -21
0 -24 0 -4 -5 -10 -11 -14 -7 -4 -14 -22 -16 -40 -4 -37 -14 -53 -14 -24 0 16
-2 16 -10 4 -5 -9 -5 -19 1 -26 7 -9 5 -21 -6 -38 -19 -29 -27 -34 -19 -11 4
8 1 15 -5 15 -10 0 -12 -9 -15 -65 -1 -11 -6 -19 -13 -18 -8 2 -10 -4 -6 -14
4 -11 3 -14 -5 -9 -7 4 -12 1 -12 -7 0 -8 -7 -17 -15 -21 -8 -3 -12 -11 -9
-19 2 -7 0 -24 -5 -38 l-10 -24 -1 25 0 25 -14 -25 c-41 -73 -60 -116 -58
-129 2 -7 -1 -10 -7 -6 -7 4 -11 -4 -11 -20 0 -20 -4 -26 -15 -21 -20 7 -31
-20 -16 -38 8 -9 8 -17 2 -20 -5 -3 -14 6 -19 21 -6 16 -11 23 -11 16 -1 -6
-10 -9 -22 -6 -15 4 -22 0 -27 -18 l-6 -24 -5 23 c-3 13 -9 23 -13 23 -4 0
-19 11 -34 24 -15 14 -30 22 -35 20 -4 -3 -10 -1 -14 5 -10 16 -25 12 -26 -7
0 -12 -4 -8 -10 9 -12 32 -70 57 -62 27 2 -5 -2 -9 -8 -9 -6 0 -9 9 -6 20 3
11 1 20 -3 20 -12 0 -83 49 -92 63 -5 8 -8 6 -8 -5 0 -25 -21 -23 -27 2 -4 16
-8 18 -19 9 -24 -20 -17 7 20 74 152 279 225 414 264 487 25 47 73 135 106
195 34 61 75 136 91 168 39 76 70 110 94 102 10 -3 103 -52 207 -109z"/>
<path d="M3968 5584 c-77 -41 -75 -169 2 -209 107 -56 221 58 165 165 -28 55
-109 76 -167 44z m120 -14 c25 -15 32 -26 32 -50 0 -17 4 -29 9 -26 5 4 8 -2
6 -11 -2 -10 -4 -22 -5 -28 -1 -5 -6 1 -11 14 -7 17 -13 21 -20 14 -14 -14 7
-56 23 -47 7 4 8 2 4 -5 -5 -7 -12 -9 -19 -3 -16 11 -57 13 -57 2 0 -7 -29 -7
-37 0 -2 2 -6 3 -10 4 -5 1 -19 8 -33 16 -14 8 -29 14 -35 15 -18 0 -16 40 5
73 33 54 91 66 148 32z m-4 -166 c3 -8 2 -12 -4 -9 -6 3 -10 10 -10 16 0 14 7
11 14 -7z"/>
<path d="M4187 5399 c-46 -72 -417 -766 -417 -781 0 -28 41 -59 74 -56 28 3
42 24 243 393 117 215 213 395 213 401 0 22 -35 54 -67 60 -26 5 -34 2 -46
-17z m93 -28 c7 -13 -33 -94 -171 -349 -107 -198 -186 -332 -195 -332 -8 0
-14 -5 -14 -11 0 -5 -13 -24 -29 -41 -23 -25 -34 -29 -55 -24 -14 3 -26 13
-26 20 0 13 391 737 412 763 12 15 65 -2 78 -26z"/>
<path d="M4126 5235 c-9 -9 -16 -28 -16 -42 0 -31 -173 -351 -204 -378 -32
-27 -40 -59 -21 -79 13 -12 21 -13 40 -4 25 11 28 16 29 53 2 34 184 362 212
380 20 13 25 23 22 48 -4 37 -35 48 -62 22z m48 -3 c3 -5 -8 -16 -25 -26 -22
-13 -29 -14 -29 -4 0 28 41 50 54 30z m-74 -134 c-22 -40 -66 -121 -98 -180
-31 -60 -61 -108 -66 -108 -4 0 -2 10 6 23 8 12 52 93 98 180 45 86 87 157 92
157 5 0 -10 -33 -32 -72z m-162 -317 c3 -8 0 -11 -7 -7 -6 4 -11 2 -11 -3 0
-6 -7 -11 -15 -11 -15 0 -20 21 -8 34 11 10 36 3 41 -13z"/>
<path d="M3850 5343 c-30 -11 -70 -57 -76 -89 -15 -80 40 -144 125 -144 36 0
49 6 77 34 28 28 34 42 34 75 0 53 -22 97 -60 116 -29 15 -71 18 -100 8z m89
-17 c15 -8 33 -22 41 -31 28 -34 21 -118 -12 -136 -14 -7 -18 -8 -14 0 4 5 1
19 -6 31 -15 23 -30 27 -21 5 3 -10 0 -15 -8 -13 -8 2 -13 -2 -12 -9 3 -14
-30 -10 -35 5 -2 6 -10 8 -18 5 -8 -3 -14 0 -14 6 0 6 -3 11 -7 10 -5 -1 -19
2 -31 6 -20 7 -23 12 -18 38 10 50 61 95 109 96 10 1 30 -5 46 -13z"/>
<path d="M3967 5239 c-18 -20 -14 -71 3 -53 7 8 22 74 16 74 -1 0 -10 -9 -19
-21z"/>
<path d="M3700 5082 c-73 -36 -88 -133 -29 -191 34 -35 82 -43 131 -24 47 19
71 56 71 108 0 50 -27 93 -70 111 -43 18 -61 18 -103 -4z m132 -29 c14 -12 17
-25 13 -47 -5 -24 -4 -28 5 -16 9 12 10 6 6 -24 -2 -21 -12 -46 -21 -55 -10
-9 -15 -11 -12 -5 4 6 -3 22 -14 35 l-21 24 7 -25 c7 -22 6 -23 -9 -11 -14 12
-16 11 -16 -5 0 -16 -2 -17 -10 -4 -9 13 -10 13 -10 0 0 -12 -2 -13 -9 -1 -5
7 -14 10 -20 7 -6 -4 -11 -2 -11 3 0 6 -6 11 -14 11 -8 0 -17 8 -20 17 -6 15
-8 15 -16 3 -7 -11 -10 -5 -10 21 0 90 113 135 182 72z m-24 -168 c-3 -3 -9 2
-12 12 -6 14 -5 15 5 6 7 -7 10 -15 7 -18z"/>
<path d="M3820 4961 c0 -11 5 -23 10 -26 6 -3 10 3 10 14 0 11 -4 23 -10 26
-5 3 -10 -3 -10 -14z"/>
<path d="M4175 5070 c-4 -12 -5 -24 -2 -27 3 -2 8 5 12 17 4 12 5 24 2 27 -3
2 -8 -5 -12 -17z"/>
<path d="M4080 4894 c0 -8 5 -12 10 -9 6 4 8 11 5 16 -9 14 -15 11 -15 -7z"/>
<path d="M3583 4838 c-101 -26 -113 -177 -17 -223 47 -22 98 -13 135 24 89 89
5 231 -118 199z m108 -38 c25 -24 28 -33 19 -50 -8 -15 -7 -19 2 -16 7 1 10 1
7 -1 -4 -2 -4 -13 -1 -25 3 -15 1 -19 -7 -14 -6 4 -9 12 -6 17 4 5 -1 9 -9 9
-21 0 -20 -27 0 -38 11 -6 13 -12 6 -16 -6 -4 -17 2 -24 14 -15 23 -30 27 -22
5 5 -11 2 -13 -12 -8 -11 4 -15 3 -10 -5 4 -7 -1 -10 -14 -9 -11 1 -20 5 -20
9 0 4 -7 5 -15 2 -8 -4 -15 -1 -15 5 0 6 -3 11 -7 10 -5 -1 -18 2 -30 6 -36
12 -31 59 11 101 46 46 104 48 147 4z"/>
<path d="M2808 5588 c-12 -10 -18 -53 -27 -198 -6 -102 -11 -193 -11 -202 0
-12 11 -19 35 -24 l34 -6 -5 -62 c-11 -154 -24 -351 -30 -463 -4 -68 -10 -123
-14 -123 -12 0 -19 -43 -22 -129 -3 -69 -1 -74 20 -82 12 -5 33 -4 46 1 22 8
24 15 28 102 3 51 1 98 -4 105 -6 8 -4 95 7 235 9 123 19 266 23 318 l7 95 36
3 36 3 7 117 c3 64 9 158 12 209 l7 91 -39 11 c-53 15 -127 14 -146 -1z m95
-15 c40 -22 49 -34 40 -53 -3 -8 -8 -60 -10 -115 -3 -88 -8 -181 -12 -224 -1
-11 -14 -13 -62 -7 -33 3 -65 9 -70 12 -6 3 -7 35 -3 77 8 93 10 136 12 224 3
101 33 126 105 86z m-38 -500 c-3 -49 -8 -117 -11 -153 -2 -36 -7 -101 -9
-145 -8 -175 -18 -265 -27 -265 -7 0 -8 27 -4 73 3 39 10 155 16 257 13 250
20 320 31 320 6 0 7 -36 4 -87z m-41 -646 c-3 -29 -7 -63 -9 -77 -2 -14 -4
-29 -4 -34 -1 -5 -4 -6 -8 -2 -8 7 -6 78 3 139 9 56 24 34 18 -26z"/>
<path d="M3043 5568 c-6 -7 -20 -158 -33 -353 -12 -187 -26 -383 -29 -435 -4
-54 -4 -100 2 -107 5 -7 5 -18 1 -24 -11 -18 -13 -70 -4 -94 7 -18 19 -23 74
-28 37 -4 72 -4 80 -1 19 7 38 52 25 60 -7 4 -6 10 1 19 7 8 9 23 5 34 -3 10
-2 22 3 25 5 3 12 63 16 133 4 71 16 269 27 442 14 227 17 317 9 325 -17 17
-164 21 -177 4z m97 -18 c6 -11 16 -18 21 -14 7 4 8 -21 4 -74 -5 -56 -4 -82
5 -87 8 -5 7 -12 -5 -25 -12 -13 -13 -23 -6 -43 5 -14 7 -28 4 -31 -3 -3 -1
-12 5 -19 7 -8 9 -16 7 -19 -13 -12 -24 -93 -29 -210 -1 -32 -5 -61 -9 -64 -3
-4 -2 -15 4 -26 7 -13 7 -29 0 -50 -6 -17 -8 -34 -6 -38 3 -5 1 -12 -5 -15 -8
-5 -7 -11 1 -22 10 -12 10 -16 -2 -24 -10 -6 -11 -9 -1 -9 8 0 10 -5 5 -12 -4
-7 -9 -22 -9 -33 -1 -11 -2 -28 -3 -37 -1 -20 -27 -23 -94 -12 l-38 7 6 101
c3 55 10 148 15 206 5 58 12 168 16 245 3 77 8 143 10 146 2 3 4 39 5 80 1 41
6 80 11 87 17 20 76 15 88 -8z m-60 -890 c20 -7 16 -8 -22 -9 -27 -1 -48 4
-48 9 0 12 34 12 70 0z m30 -30 c0 -11 -50 -11 -95 0 -24 6 -17 8 33 9 35 0
62 -3 62 -9z m-22 -27 c-15 -2 -42 -2 -60 0 -18 2 -6 4 27 4 33 0 48 -2 33 -4z
m20 -28 c4 -4 -20 -5 -52 -1 -77 8 -89 20 -13 13 32 -3 61 -8 65 -12z m-3 -25
c7 -12 -48 -12 -85 0 -20 6 -14 8 27 9 28 1 55 -3 58 -9z"/>
<path d="M962 5217 c-149 -149 -272 -276 -272 -282 0 -16 404 -415 421 -415 9
0 42 25 74 55 32 30 61 53 64 50 3 -3 -21 -31 -52 -63 -31 -32 -57 -65 -57
-73 0 -24 391 -420 415 -419 21 0 565 536 565 555 -1 16 -404 425 -419 425 -7
0 -39 -25 -72 -57 -32 -31 -61 -54 -64 -52 -2 3 20 30 50 59 30 30 55 63 55
74 0 28 -387 416 -415 416 -13 0 -114 -94 -293 -273z m345 186 c10 -18 23 -33
30 -33 6 0 15 -10 18 -21 6 -17 9 -19 16 -8 7 12 9 11 9 -1 1 -15 93 -120 107
-121 4 0 23 -18 41 -41 17 -22 32 -38 32 -34 0 3 19 -15 42 -40 30 -33 44 -41
50 -32 4 7 8 8 8 3 0 -15 -534 -545 -549 -545 -17 0 -401 393 -401 410 0 19
202 222 217 218 6 -2 69 53 140 122 161 155 161 155 195 155 21 0 32 -8 45
-32z m400 -405 c-3 -7 -5 -2 -5 12 0 14 2 19 5 13 2 -7 2 -19 0 -25z m-1 -29
c18 2 44 -11 44 -21 0 -5 7 -8 15 -4 11 4 15 -1 15 -17 0 -15 3 -18 8 -10 6 9
15 -2 29 -32 11 -25 18 -45 15 -45 -3 0 -31 27 -62 60 -31 33 -64 60 -74 60
-21 0 -480 -453 -475 -468 2 -5 74 -82 159 -171 100 -104 162 -161 175 -161
23 0 480 451 474 468 -2 6 -28 36 -57 66 -44 46 -51 59 -43 73 7 12 11 13 11
5 0 -13 70 -88 70 -76 0 16 29 -20 32 -39 2 -12 7 -21 11 -19 4 1 15 -5 24
-13 15 -15 -4 -37 -238 -271 -140 -141 -262 -260 -273 -266 -15 -8 -46 18
-217 189 -109 109 -199 205 -199 213 0 16 99 120 114 120 6 0 33 22 61 49 27
27 76 72 108 101 31 29 57 59 57 66 0 8 6 14 13 14 16 0 72 58 81 83 4 13 12
16 26 12 14 -4 28 2 47 23 16 16 31 25 34 19 3 -5 10 -8 15 -8z m54 -96 c0 -7
-4 -13 -9 -13 -5 0 -8 12 -8 26 0 18 2 22 8 13 5 -8 9 -20 9 -26z m-225 7
c-10 -11 -25 -20 -33 -20 -12 0 -12 4 3 20 10 11 25 20 33 20 12 0 12 -4 -3
-20z m137 -9 c18 10 19 8 13 -13 -6 -19 -5 -21 6 -10 23 22 39 14 40 -20 l1
-33 8 30 7 30 10 -35 c8 -23 12 -28 13 -15 1 14 5 10 15 -15 7 -19 14 -27 14
-18 1 9 5 19 10 22 4 3 6 -6 3 -19 -4 -25 12 -35 21 -12 3 6 6 -3 6 -22 1 -29
3 -32 16 -21 8 7 15 21 15 32 0 10 4 17 10 13 5 -3 7 -12 3 -20 -3 -8 -1 -15
4 -15 5 0 8 -17 6 -37 -2 -29 -1 -33 6 -18 7 16 10 17 14 5 15 -41 17 -42 14
-4 l-2 42 26 -27 c14 -14 29 -42 32 -62 5 -36 3 -38 -206 -247 -117 -117 -217
-212 -222 -212 -16 0 -315 306 -315 322 0 18 144 161 153 152 4 -4 7 0 7 9 0
11 5 14 17 10 12 -5 15 -2 10 9 -3 9 0 19 7 21 10 4 12 -1 8 -15 -5 -20 -4
-21 17 -6 13 9 30 26 38 38 12 17 17 19 24 9 6 -10 10 -7 17 11 5 14 12 24 16
23 19 -8 26 1 27 35 1 33 2 34 9 12 4 -14 8 -20 9 -14 1 7 11 14 22 17 19 5
21 11 16 43 -5 27 -3 34 5 26 8 -8 17 -8 30 -1z m-72 -31 c0 -5 -5 -10 -11
-10 -5 0 -7 5 -4 10 3 6 8 10 11 10 2 0 4 -4 4 -10z m276 -30 c4 -12 7 -12 13
-1 6 9 11 4 19 -18 14 -39 3 -39 -31 -1 -17 19 -24 35 -20 47 5 13 7 14 11 2
2 -7 6 -21 8 -29z m-456 -45 c-51 -52 -80 -68 -80 -44 0 5 5 7 10 4 6 -3 14 3
18 14 4 11 11 20 15 20 4 0 19 14 33 31 14 16 33 30 42 30 10 0 -3 -20 -38
-55z m419 41 c7 -8 8 -17 3 -20 -6 -3 -12 3 -15 14 -6 24 -4 25 12 6z m-542
-163 c-20 -21 -29 -25 -38 -16 -10 10 -6 15 13 22 15 5 29 15 33 21 4 6 10 9
13 5 3 -3 -6 -18 -21 -32z"/>
<path d="M1002 5192 c-150 -146 -223 -224 -222 -237 0 -24 68 -95 90 -95 19 0
460 441 460 460 0 20 -71 90 -90 90 -8 -1 -115 -98 -238 -218z m283 168 l39
-40 -226 -227 -227 -227 -28 20 c-15 12 -35 33 -43 48 l-15 26 220 220 c122
121 225 220 231 220 5 0 28 -18 49 -40z"/>
<path d="M1116 5269 c-17 -14 -26 -28 -23 -39 6 -24 -113 -143 -135 -135 -21
8 -60 -42 -56 -73 5 -39 31 -49 72 -29 28 13 36 23 36 43 0 33 113 143 147
144 32 0 59 54 44 86 -13 30 -49 31 -85 3z m64 -29 c21 -13 0 -45 -30 -45 -30
0 -51 32 -30 45 8 5 22 10 30 10 8 0 22 -5 30 -10z m-97 -80 c-23 -40 -81 -95
-90 -87 -6 6 94 117 105 117 2 0 -5 -14 -15 -30z m-100 -109 c23 -1 22 -28 -2
-41 -28 -15 -61 -12 -67 5 -10 26 4 45 28 41 13 -3 31 -5 41 -5z"/>
<path d="M1287 5232 c-37 -37 -67 -71 -67 -76 0 -13 222 -236 235 -236 6 0 42
32 80 70 l70 70 -120 120 c-66 66 -122 120 -125 120 -3 0 -36 -30 -73 -68z
m98 -27 c18 -9 37 -27 44 -41 10 -23 14 -24 28 -13 12 10 15 10 9 2 -7 -13 12
-50 27 -51 16 -1 22 -8 41 -40 l18 -34 -48 -49 -48 -49 -113 112 -113 112 22
23 c19 20 60 39 91 42 5 1 24 -6 42 -14z"/>
<path d="M1115 5060 l-69 -70 122 -122 122 -122 70 69 c39 38 70 74 70 80 0
13 -222 235 -235 235 -6 0 -42 -31 -80 -70z m132 -49 c13 -14 23 -30 23 -34 0
-5 5 -5 10 -2 6 3 10 -2 11 -12 1 -13 3 -11 9 7 8 24 8 23 9 -8 1 -18 5 -31 9
-28 12 7 25 -5 46 -43 l18 -33 -46 -47 -46 -46 -112 112 -112 112 23 25 c13
14 27 24 30 22 3 -2 15 0 26 5 31 12 78 -1 102 -30z m118 -61 c3 -5 1 -10 -4
-10 -6 0 -11 5 -11 10 0 6 2 10 4 10 3 0 8 -4 11 -10z"/>
<path d="M955 4900 l-69 -69 19 -23 c44 -53 210 -218 220 -218 6 0 42 32 80
70 l70 70 -120 120 c-66 66 -122 120 -125 120 -3 0 -37 -31 -75 -70z m87 -24
c3 2 19 -11 36 -31 33 -37 47 -43 55 -22 3 6 6 -6 7 -28 1 -22 4 -35 6 -28 6
15 34 5 34 -11 0 -7 9 -22 20 -34 l21 -22 -42 -45 c-23 -25 -47 -45 -53 -45
-6 0 -60 49 -119 108 l-109 109 33 27 c17 15 38 25 45 22 7 -3 16 -1 19 4 4 7
13 7 24 0 10 -5 21 -7 23 -4z m149 -83 c13 -16 12 -17 -3 -4 -10 7 -18 15 -18
17 0 8 8 3 21 -13z"/>
<path d="M1940 4656 c0 -14 5 -26 10 -26 6 0 10 9 10 19 0 11 -4 23 -10 26 -6
4 -10 -5 -10 -19z"/>
<path d="M4615 5122 c-202 -70 -321 -262 -287 -463 28 -164 132 -286 285 -336
l57 -19 -26 -34 c-62 -82 -72 -156 -31 -237 49 -96 135 -143 262 -143 292 0
583 263 526 475 -16 59 -65 131 -103 151 -18 10 -65 19 -104 22 l-70 4 18 52
c33 97 18 247 -34 336 -30 50 -106 127 -153 154 -94 56 -242 72 -340 38z m246
-12 c188 -64 300 -228 286 -417 -6 -84 -37 -163 -64 -163 -39 0 -188 -61 -267
-108 -81 -48 -117 -55 -103 -18 6 15 4 14 -18 -1 -13 -10 -25 -24 -25 -32 0
-10 -6 -7 -19 7 -20 24 -47 29 -54 10 -3 -8 -6 -6 -6 5 -1 20 -27 23 -34 5 -3
-7 -6 -3 -6 9 -1 21 -16 38 -36 38 -5 0 -14 10 -20 22 l-11 21 -18 -21 c-17
-22 -17 -22 -12 8 4 17 3 24 0 16 -4 -8 -13 5 -24 35 -9 27 -23 48 -29 46 -9
-2 -10 8 -5 34 5 26 4 35 -5 30 -8 -5 -9 5 -6 36 4 32 3 39 -6 28 -7 -11 -8
-6 -3 20 11 51 11 83 2 102 -6 12 -3 30 7 50 l16 33 -20 -25 c-11 -14 -21 -20
-21 -15 0 24 61 114 105 154 48 44 48 44 64 23 l16 -21 32 20 c26 16 32 26 27
43 -5 20 0 24 38 33 72 17 154 15 219 -7z m-271 -35 c0 -8 -7 -15 -15 -15 -16
0 -20 12 -8 23 11 12 23 8 23 -8z m666 -560 c28 -8 61 -26 75 -41 34 -36 32
-105 -5 -168 -36 -61 -136 -158 -157 -153 -9 3 -36 -9 -60 -25 -23 -15 -65
-36 -92 -46 -28 -9 -52 -24 -54 -34 -5 -18 -73 -31 -73 -13 0 5 -5 3 -10 -5
-5 -8 -10 -11 -10 -6 0 5 -6 3 -13 -3 -8 -6 -17 -8 -20 -5 -3 4 -21 9 -39 13
-24 5 -36 3 -45 -8 -9 -13 -10 -11 -6 12 5 25 9 27 54 27 215 0 479 183 479
332 0 92 -106 131 -255 93 -248 -63 -440 -282 -337 -384 15 -15 33 -30 39 -32
9 -3 10 -13 4 -34 l-9 -30 -1 28 c-1 31 -15 35 -30 10 -10 -17 -10 -17 -11 0
0 10 -6 17 -12 15 -17 -6 -39 37 -48 91 -10 58 7 90 90 171 99 98 225 165 364
195 82 18 123 18 182 0z m-64 -35 c45 -13 78 -52 78 -92 0 -56 -64 -146 -98
-136 -5 2 -19 -8 -31 -21 -11 -13 -27 -21 -35 -18 -8 3 -22 -3 -32 -14 -10
-11 -23 -18 -30 -15 -7 3 -15 2 -18 -2 -4 -3 -14 -7 -24 -8 -9 -1 -27 -5 -39
-8 -13 -3 -23 0 -23 6 0 7 -6 6 -15 -2 -8 -7 -15 -9 -15 -5 0 5 -8 1 -17 -7
-10 -8 -29 -13 -43 -12 -14 2 -42 5 -62 7 -24 3 -38 0 -39 -7 0 -6 -5 1 -11
17 -5 15 -14 24 -21 20 -6 -4 -8 0 -4 10 3 10 3 17 -2 17 -5 0 -11 10 -15 22
-9 35 108 144 204 191 123 60 215 78 292 57z m201 -169 c-1 -77 -39 -158 -108
-230 -38 -40 -68 -62 -98 -70 -23 -7 -47 -17 -52 -21 -6 -5 -25 -7 -43 -6 -18
1 -36 -2 -39 -7 -3 -5 -9 -3 -14 4 -7 12 -11 12 -18 1 -4 -7 -14 -14 -22 -15
-8 -2 -20 -6 -26 -10 -9 -5 -13 -2 -13 9 0 13 -3 14 -15 4 -12 -10 -16 -9 -21
5 -5 11 -9 13 -14 5 -4 -6 -17 -12 -28 -13 -12 -1 -22 -5 -22 -9 0 -4 -12 -3
-26 2 -14 6 -31 7 -37 3 -17 -11 -49 -8 -74 5 -37 20 -27 27 32 24 30 -2 91 4
136 13 75 15 82 15 93 0 11 -15 16 -15 65 5 79 31 143 78 136 99 -4 13 17 40
73 97 66 66 82 89 98 137 14 47 20 54 28 40 5 -9 9 -42 9 -72z m-228 -191 c4
-12 2 -26 -3 -33 -17 -19 -72 -49 -72 -38 0 6 -11 7 -27 2 -55 -16 -72 8 -20
27 17 6 48 23 67 36 43 31 47 31 55 6z m-495 -128 c0 -8 -1 -13 -3 -11 -1 2
-9 12 -16 22 -12 15 -12 17 3 11 9 -3 16 -13 16 -22z"/>
<path d="M4675 5011 c-220 -58 -298 -328 -140 -483 86 -85 212 -108 322 -59
217 96 223 412 10 515 -56 28 -144 40 -192 27z m175 -33 c94 -40 151 -124 158
-233 6 -91 -20 -156 -87 -217 l-46 -43 -4 30 -4 30 -7 -30 -8 -30 -1 28 c-1
17 -7 27 -16 27 -8 0 -15 -4 -15 -10 0 -5 -13 -8 -30 -6 -16 2 -27 0 -25 -5 3
-4 1 -10 -5 -14 -5 -3 -10 0 -11 7 0 7 -7 0 -14 -17 l-13 -30 -4 39 c-3 38 -4
39 -20 22 -17 -17 -18 -16 -19 11 0 25 -1 26 -9 8 -8 -19 -9 -19 -9 2 -1 16
-5 21 -17 16 -10 -4 -17 1 -21 16 -3 11 -11 21 -19 21 -10 0 -11 6 -4 26 7 16
7 23 0 19 -6 -3 -10 -12 -10 -20 0 -8 -5 -17 -11 -21 -8 -5 -10 1 -7 20 4 21
3 24 -8 15 -8 -6 -14 -28 -15 -48 0 -28 -2 -32 -8 -16 -5 11 -4 30 0 43 5 13
9 31 9 40 0 15 -2 15 -10 2 -8 -12 -10 -10 -10 8 0 13 -4 20 -10 17 -5 -3 -10
0 -10 7 0 10 -3 10 -9 -1 -15 -23 -3 79 15 142 5 16 3 17 -16 7 -20 -11 -21
-10 -9 12 42 78 105 127 187 144 67 13 110 9 172 -18z m-143 -500 c-3 -7 -5
-2 -5 12 0 14 2 19 5 13 2 -7 2 -19 0 -25z m133 9 c0 -8 -7 -14 -15 -14 -25 0
-17 17 13 26 1 1 2 -5 2 -12z"/>
<path d="M872 4098 c-7 -7 -12 -39 -12 -74 l0 -63 -55 -36 c-156 -104 -245
-274 -245 -466 0 -154 53 -282 160 -389 113 -113 239 -164 400 -163 310 3 550
243 550 550 0 194 -79 347 -236 459 l-64 46 0 62 c0 35 -5 67 -12 74 -17 17
-469 17 -486 0z m469 -9 c15 -8 19 -21 19 -64 0 -30 -2 -55 -5 -55 -3 0 -34
10 -68 22 -47 16 -89 22 -172 23 -61 1 -116 -2 -122 -8 -9 -6 -13 -6 -13 2 0
6 -10 11 -22 11 -17 0 -19 3 -9 9 11 7 10 13 -7 31 -12 13 -19 27 -16 31 7 12
393 10 415 -2z m-50 -113 c230 -80 381 -306 366 -546 -10 -164 -93 -318 -214
-402 -25 -16 -52 -31 -61 -32 -9 -2 -18 -8 -20 -14 -6 -19 -28 -14 -40 11 -11
20 -11 19 -6 -8 6 -29 6 -29 -11 -10 -16 20 -16 20 -12 -2 3 -14 -1 -24 -11
-28 -21 -8 -25 0 -12 24 7 15 7 21 0 21 -6 0 -13 -7 -15 -15 -16 -49 -17 -51
-25 -25 -5 15 -8 18 -9 8 -1 -9 -5 -20 -11 -23 -6 -4 -9 4 -7 17 1 15 -3 22
-12 20 -7 -2 -11 3 -9 10 3 7 8 24 12 38 6 22 5 21 -10 -5 -9 -16 -20 -32 -24
-35 -4 -3 -10 -17 -14 -32 -3 -16 -11 -28 -16 -28 -5 0 -8 6 -6 13 13 41 16
68 6 62 -5 -3 -10 0 -10 7 0 7 -14 -3 -31 -22 -17 -19 -26 -27 -19 -17 7 9 11
19 9 21 -6 6 -34 -17 -48 -39 l-12 -20 4 20 c3 11 8 28 12 38 6 13 3 17 -11
14 -11 -1 -24 -6 -31 -10 -6 -4 -13 -1 -16 5 -3 10 -7 10 -20 -1 -14 -11 -17
-11 -17 0 -1 8 -7 3 -15 -11 -16 -28 -21 -19 -5 10 13 24 4 47 -22 53 -13 4
-17 10 -12 18 4 8 3 10 -5 5 -6 -4 -9 -12 -5 -17 3 -5 0 -8 -8 -7 -7 2 -14 -7
-16 -19 -2 -13 -7 -23 -12 -23 -6 0 -5 11 0 26 13 33 13 37 -2 28 -7 -4 -8 -3
-4 5 4 6 13 8 19 5 7 -4 9 -4 5 1 -4 4 -3 14 3 21 8 9 5 11 -10 7 -12 -3 -21
-9 -21 -14 0 -5 -4 -9 -10 -9 -5 0 -6 7 -3 17 4 10 2 14 -4 10 -6 -4 -9 4 -7
21 4 26 3 25 -11 -5 -18 -39 -28 -43 -19 -8 7 28 -10 35 -20 9 -4 -9 -9 -14
-12 -11 -4 3 4 20 16 36 12 17 17 31 11 31 -6 0 -8 7 -5 15 9 21 -6 19 -33 -7
-13 -12 -23 -16 -23 -10 0 6 5 14 10 17 6 3 10 14 10 24 0 13 -7 18 -25 16
-20 -3 -24 1 -22 18 1 14 -3 21 -11 19 -9 -2 -11 4 -7 18 4 12 2 20 -6 20 -9
0 -8 4 1 15 11 13 8 18 -10 17 -3 0 -5 12 -4 26 1 15 3 27 4 27 1 0 3 10 4 22
2 17 -1 20 -9 13 -9 -8 -12 -4 -10 12 1 13 3 23 4 23 1 0 4 13 6 28 3 23 1 27
-12 23 -13 -5 -14 -4 -3 9 7 8 9 15 5 15 -4 0 -2 7 5 15 7 8 10 21 7 29 -3 8
3 22 13 31 11 10 19 20 18 24 0 3 1 9 2 14 1 4 4 12 5 17 1 6 4 12 5 15 1 3 3
9 4 15 0 5 10 16 21 25 15 12 12 12 -13 -2 -18 -10 -28 -19 -22 -21 6 -2 3
-10 -7 -18 -14 -11 -15 -13 -3 -14 12 0 10 -4 -4 -15 -14 -10 -15 -15 -6 -15
24 0 -4 -20 -36 -25 l-29 -5 30 25 c17 14 31 29 31 35 1 5 3 12 4 15 1 3 3 8
4 13 0 4 21 27 46 51 28 27 38 41 25 37 -19 -6 -19 -5 -2 8 10 8 17 17 15 20
-2 4 15 17 37 31 27 17 34 24 21 25 -16 0 -17 2 -5 16 12 15 11 16 -9 10 -35
-11 -26 -1 28 34 139 89 315 110 471 56z m-397 -991 c-4 -8 -11 -12 -16 -9 -6
4 -5 10 3 15 19 12 19 11 13 -6z m86 -35 c0 -5 -4 -10 -10 -10 -5 0 -10 5 -10
10 0 6 5 10 10 10 6 0 10 -4 10 -10z m100 -20 c0 -5 -5 -10 -11 -10 -5 0 -7 5
-4 10 3 6 8 10 11 10 2 0 4 -4 4 -10z m30 0 c0 -5 -5 -10 -11 -10 -5 0 -7 5
-4 10 3 6 8 10 11 10 2 0 4 -4 4 -10z m70 0 c0 -5 -7 -10 -16 -10 -8 0 -12 5
-9 10 3 6 10 10 16 10 5 0 9 -4 9 -10z"/>
<path d="M1003 3826 c-183 -60 -299 -248 -263 -429 22 -112 79 -199 168 -255
111 -71 246 -80 366 -24 293 137 291 553 -4 690 -67 31 -199 40 -267 18z m259
-28 c75 -35 143 -99 181 -173 30 -56 32 -67 32 -160 0 -87 -3 -107 -26 -156
-32 -69 -83 -126 -138 -157 -36 -21 -40 -21 -34 -5 6 16 5 16 -10 4 -9 -7 -14
-18 -10 -24 4 -7 0 -8 -12 -3 -11 4 -22 2 -26 -6 -11 -17 -163 -22 -156 -5 17
46 17 55 1 53 -9 -1 -21 -11 -26 -22 -9 -18 -8 -18 8 1 16 19 16 19 9 -10 -9
-39 -7 -38 -41 -23 -35 15 -44 26 -36 46 4 10 1 13 -7 8 -7 -5 -10 -14 -7 -22
6 -17 4 -17 -28 -3 -23 11 -24 12 -9 46 8 19 13 37 11 38 -8 8 -49 -36 -43
-46 6 -8 2 -8 -14 0 -11 7 -21 15 -21 19 0 12 20 38 20 27 1 -12 30 25 30 38
0 4 -4 5 -10 2 -13 -8 -13 11 0 35 16 31 -6 33 -29 3 l-20 -28 3 31 c2 17 6
37 10 45 4 8 -2 3 -13 -11 -12 -14 -25 -30 -31 -37 -5 -7 -10 -18 -10 -25 0
-9 -3 -9 -12 0 -9 9 -6 18 14 39 31 34 42 63 25 63 -8 0 -21 -17 -31 -37 -13
-28 -20 -33 -26 -23 -6 10 -3 21 9 35 19 20 43 84 46 120 2 14 -10 6 -42 -29
-60 -66 -54 -47 7 23 28 32 50 65 50 75 0 9 -4 15 -9 12 -15 -9 -4 57 11 68
16 12 31 43 32 66 1 8 5 21 10 28 4 7 5 19 2 27 -6 16 47 48 119 72 63 20 179
12 247 -19z m-382 -123 c0 -2 -10 -10 -22 -16 -21 -11 -22 -11 -9 4 13 16 31
23 31 12z m-88 -98 c-26 -28 -29 -45 -4 -26 16 13 16 13 0 -7 -23 -26 -23 -41
-1 -23 13 11 12 7 -3 -16 -12 -16 -19 -36 -17 -42 3 -7 1 -13 -5 -13 -7 0 -10
66 -2 80 1 3 2 9 1 14 -2 9 38 56 47 56 3 0 -4 -10 -16 -23z m-2 -207 c-13
-23 -27 -26 -27 -5 0 8 4 12 8 9 4 -2 10 0 14 6 11 19 16 10 5 -10z m45 -100
c-4 -11 -2 -20 4 -20 6 0 11 -7 11 -15 0 -8 -4 -15 -10 -15 -5 0 -10 7 -10 15
0 8 -5 15 -10 15 -7 0 -7 6 0 20 6 11 13 20 16 20 3 0 2 -9 -1 -20z"/>
<path d="M843 3585 c0 -8 4 -12 9 -9 5 3 6 10 3 15 -9 13 -12 11 -12 -6z"/>
<path d="M1021 3490 c-13 -11 -19 -20 -14 -20 6 0 18 9 28 20 23 25 17 25 -14
0z"/>
<path d="M1140 3446 c0 -2 8 -10 18 -17 15 -13 16 -12 3 4 -13 16 -21 21 -21
13z"/>
<path d="M1123 3390 c0 -30 2 -43 4 -27 2 15 2 39 0 55 -2 15 -4 2 -4 -28z"/>
<path d="M1029 3353 c-13 -16 -12 -17 4 -4 9 7 17 15 17 17 0 8 -8 3 -21 -13z"/>
<path d="M954 3203 c3 -7 1 -15 -4 -18 -6 -4 -10 -14 -9 -23 0 -14 2 -14 6 -2
3 8 14 24 24 35 18 20 18 21 -2 21 -11 0 -18 -5 -15 -13z"/>
<path d="M1026 3174 c-9 -24 -2 -26 12 -4 7 11 8 20 3 20 -5 0 -12 -7 -15 -16z"/>
<path d="M1084 3145 c-8 -34 1 -42 25 -21 15 13 20 14 24 4 4 -10 6 -10 6 1 1
11 5 10 15 -5 11 -15 17 -16 27 -7 19 18 -11 44 -36 31 -15 -9 -17 -8 -11 7 5
15 4 16 -9 5 -10 -8 -15 -9 -15 -1 0 21 -20 11 -26 -14z"/>
<path d="M660 3590 c-9 -6 -10 -10 -3 -10 6 0 15 5 18 10 8 12 4 12 -15 0z"/>
<path d="M700 3239 c0 -5 5 -7 10 -4 6 3 10 8 10 11 0 2 -4 4 -10 4 -5 0 -10
-5 -10 -11z"/>
<path d="M826 3121 c-4 -7 -5 -15 -2 -18 9 -9 19 4 14 18 -4 11 -6 11 -12 0z"/>
<path d="M937 3015 c3 -8 9 -12 14 -9 12 7 11 11 -5 17 -10 4 -13 1 -9 -8z"/>
<path d="M4458 3784 c-85 -26 -139 -97 -123 -161 16 -64 130 -133 218 -133 34
0 46 6 78 40 46 48 27 47 347 23 l233 -17 20 -39 c21 -40 66 -67 112 -67 53 0
132 33 169 70 32 32 38 44 38 81 0 37 -5 48 -44 85 -29 28 -64 49 -99 60 -74
23 -117 14 -159 -35 l-33 -37 -250 18 c-137 10 -259 20 -270 23 -12 2 -29 21
-38 40 -29 61 -102 79 -199 49z m123 -4 c24 0 69 -50 69 -76 0 -13 -4 -24 -10
-24 -5 0 -10 -7 -10 -15 0 -8 -4 -15 -10 -15 -5 0 -10 -9 -10 -21 0 -11 -4
-17 -10 -14 -5 3 -10 1 -10 -5 0 -6 -14 -8 -36 -6 -26 3 -34 1 -31 -8 6 -16
-26 -14 -46 3 -13 10 -15 9 -10 -11 5 -23 5 -23 -11 -3 -10 11 -15 15 -12 9 3
-7 -1 -15 -10 -18 -10 -4 -19 4 -28 26 -11 26 -15 28 -17 13 -4 -16 -8 -14
-26 15 -19 31 -20 37 -7 61 23 46 141 104 189 94 11 -3 27 -5 36 -5z m841 -73
c18 -8 47 -26 65 -41 29 -24 31 -29 21 -57 -6 -17 -17 -33 -24 -36 -8 -3 -11
-10 -7 -17 4 -6 -1 -5 -11 3 -15 13 -19 13 -27 0 -5 -8 -9 -17 -9 -21 0 -4
-11 -10 -25 -14 -14 -3 -22 -11 -18 -17 4 -7 0 -8 -11 -4 -10 4 -23 4 -29 0
-22 -14 -55 -13 -70 1 -8 8 -17 13 -20 10 -13 -13 -38 58 -31 89 10 51 41 102
66 114 28 13 85 9 130 -10z m-492 -43 c238 -16 270 -20 270 -32 -1 -18 -19
-33 -48 -36 -17 -3 -36 -7 -42 -11 -6 -4 -18 -1 -27 7 -9 7 -14 8 -10 2 8 -14
-50 -16 -75 -3 -13 7 -18 6 -18 -2 0 -9 -3 -9 -14 0 -7 6 -29 11 -47 11 -19
-1 -68 6 -109 14 -44 8 -79 11 -84 6 -10 -10 -56 28 -56 48 0 15 -9 15 260 -4z"/>
<path d="M2031 3428 c-6 -13 -22 -112 -37 -221 -21 -151 -25 -200 -16 -209 23
-23 33 8 55 170 12 89 24 162 27 162 3 0 35 -76 71 -168 50 -125 71 -167 84
-167 13 0 34 41 83 164 49 125 67 160 73 145 4 -10 15 -81 23 -158 17 -148 19
-156 42 -156 19 0 18 36 -10 258 -21 174 -32 212 -54 198 -6 -3 -38 -77 -72
-164 -35 -86 -68 -168 -75 -181 -11 -21 -18 -9 -86 160 -41 100 -80 184 -86
187 -7 2 -17 -7 -22 -20z"/>
<path d="M2877 3444 c-4 -4 -7 -108 -7 -231 0 -208 1 -224 18 -221 14 3 18 16
20 69 2 52 7 71 23 85 13 12 23 14 27 8 4 -6 29 -45 55 -87 46 -73 68 -90 82
-66 4 5 -18 50 -49 98 -31 49 -56 93 -56 98 0 5 23 31 50 58 28 27 50 55 50
62 0 34 -29 19 -101 -53 l-78 -78 -3 129 c-3 119 -10 150 -31 129z"/>
<path d="M2595 3328 c-37 -13 -82 -53 -102 -92 -24 -45 -14 -135 20 -179 53
-70 162 -86 232 -33 l34 26 3 -27 c2 -17 10 -29 21 -31 15 -3 17 7 17 108 0
143 -22 187 -112 225 -42 17 -70 18 -113 3z m115 -51 c43 -22 72 -76 67 -125
-12 -111 -150 -155 -221 -71 -35 41 -42 75 -25 123 25 71 112 107 179 73z"/>
<path d="M3205 3321 c-45 -20 -92 -70 -101 -107 -11 -44 2 -120 26 -154 28
-39 91 -69 145 -70 66 0 146 53 119 80 -8 8 -25 3 -61 -15 -45 -23 -55 -25
-90 -16 -39 11 -84 50 -96 83 -6 16 7 18 141 20 l147 3 3 29 c9 76 -85 167
-172 166 -12 0 -39 -9 -61 -19z m132 -51 c18 -10 39 -33 48 -50 l16 -30 -126
0 c-129 0 -135 2 -114 41 29 55 118 75 176 39z"/>
<path d="M3477 3333 c-14 -13 -7 -233 7 -268 26 -62 107 -92 171 -63 21 9 28
9 35 -2 4 -7 15 -10 24 -7 14 6 16 27 14 174 -3 141 -5 168 -18 168 -12 0 -16
-22 -20 -120 -5 -131 -15 -161 -58 -172 -38 -10 -63 -4 -89 20 -21 19 -23 29
-23 133 0 62 -3 119 -6 128 -6 16 -26 21 -37 9z"/>
<path d="M3776 3325 c-9 -26 -7 -438 3 -454 5 -8 16 -11 25 -8 13 5 16 23 16
98 0 87 1 91 18 77 73 -65 169 -62 234 8 91 98 47 249 -83 284 -47 13 -91 6
-136 -21 l-32 -20 -3 23 c-4 27 -33 36 -42 13z m242 -55 c66 -41 78 -131 24
-191 -52 -58 -135 -56 -192 6 -20 22 -25 37 -25 82 0 50 3 57 37 89 31 28 46
34 80 34 25 0 57 -8 76 -20z"/>
<path d="M4294 3185 c-3 -8 -3 -19 1 -24 10 -16 145 -53 171 -47 13 4 92 -5
176 -18 84 -13 224 -34 311 -47 l159 -24 -4 -42 c-2 -24 -1 -43 2 -44 192 -20
408 -34 416 -27 26 20 46 169 25 183 -6 3 -99 23 -207 45 -213 43 -214 43
-214 -14 l0 -29 -52 7 c-275 35 -576 79 -590 86 -10 6 -56 10 -103 10 -66 0
-87 -3 -91 -15z m176 -5 c23 -14 2 -25 -48 -24 -62 2 -113 14 -106 25 7 12
135 11 154 -1z m363 -56 c264 -35 287 -39 287 -57 0 -14 -3 -17 -12 -10 -7 6
-24 9 -38 8 -14 -1 -36 2 -50 7 -23 9 -43 12 -145 22 -22 3 -40 5 -40 6 0 1
-27 3 -60 6 -33 2 -73 8 -90 13 -16 5 -37 9 -45 9 -39 1 -132 12 -141 17 -20
13 -8 27 19 22 15 -3 156 -22 315 -43z m416 21 c3 -1 24 -6 46 -9 60 -9 239
-47 248 -53 4 -2 7 -17 7 -32 0 -33 -20 -95 -28 -87 -3 3 -11 -2 -17 -11 -11
-15 -15 -15 -30 -3 -9 8 -31 15 -48 17 -31 2 -72 10 -72 13 0 1 -13 4 -30 6
-16 3 -37 12 -46 20 -15 13 -17 13 -23 -1 -3 -9 -11 -13 -18 -9 -8 5 -9 2 -4
-11 5 -15 4 -16 -9 -5 -8 7 -15 9 -15 5 0 -4 -6 -2 -13 4 -8 6 -16 8 -20 5 -3
-3 -15 -3 -26 1 -24 7 -27 37 -10 115 l11 51 46 -6 c25 -3 48 -8 51 -10z
m-109 -165 c0 -5 -5 -10 -11 -10 -5 0 -7 5 -4 10 3 6 8 10 11 10 2 0 4 -4 4
-10z"/>
<path d="M1555 2890 c-49 -33 -100 -60 -113 -60 -12 0 -67 -30 -122 -66 -88
-59 -103 -66 -137 -62 -35 4 -55 -7 -291 -164 l-254 -169 18 -27 c10 -15 54
-82 99 -149 l81 -122 256 169 c240 158 256 170 262 203 6 31 18 42 110 101 67
43 106 74 110 89 3 14 40 44 97 82 73 47 96 68 110 100 39 86 15 127 -79 132
-55 3 -60 1 -147 -57z m213 28 c16 -14 15 -61 -2 -103 -17 -40 -43 -39 -80 6
-21 25 -23 34 -15 61 5 18 14 35 19 36 6 2 7 8 4 14 -8 13 55 0 74 -14z m-143
-76 c8 -29 19 -42 52 -58 l42 -22 -85 -56 c-47 -32 -92 -55 -99 -52 -12 4 -75
88 -75 100 0 3 9 6 20 6 13 0 18 5 14 15 -4 9 0 15 10 15 9 0 16 4 16 9 0 5
15 18 33 30 17 11 29 21 25 21 -5 0 0 8 10 18 21 23 24 20 37 -26z m-145 -142
c25 -38 48 -70 53 -70 4 0 7 -4 7 -10 0 -9 -195 -145 -223 -156 -8 -2 -13 7
-14 26 -2 21 1 29 10 24 7 -3 1 3 -13 15 -17 13 -24 28 -22 45 2 14 -2 34 -8
45 -9 18 -8 21 7 21 15 0 16 2 3 10 -13 8 -12 10 3 10 10 0 15 5 12 10 -3 6 1
10 11 10 14 0 14 3 4 15 -11 13 -9 15 11 13 18 -2 24 2 23 14 -1 10 2 15 7 12
5 -3 9 -1 9 5 0 9 42 29 65 30 6 0 30 -31 55 -69z m-290 -20 c0 -5 -7 -10 -15
-10 -8 0 -15 5 -15 10 0 6 7 10 15 10 8 0 15 -4 15 -10z m9 -93 c17 -28 51
-79 75 -112 32 -43 40 -62 32 -70 -10 -11 -97 -73 -122 -88 -11 -6 -174 226
-174 247 0 5 16 6 35 3 20 -3 33 -2 30 3 -3 4 14 17 38 28 23 12 36 21 29 22
-10 0 -10 3 0 14 17 18 21 15 57 -47z m-121 -154 c39 -60 72 -113 74 -120 2
-7 -19 -28 -46 -48 l-49 -35 -64 95 c-34 52 -63 97 -63 101 0 3 7 4 15 0 21
-8 19 6 -5 32 l-21 22 26 0 c20 0 26 4 23 18 -4 19 11 41 28 42 6 0 43 -48 82
-107z m-117 -84 c67 -101 79 -124 67 -134 -7 -7 -52 -38 -100 -69 l-88 -56
-55 82 c-30 46 -56 92 -58 103 -1 11 -6 26 -10 33 -6 8 -1 12 14 12 22 0 22 0
3 15 -18 14 -17 15 11 8 26 -5 28 -4 17 9 -10 13 -7 19 19 39 17 13 41 33 53
44 11 11 27 18 34 17 8 -2 11 1 7 7 -3 6 -4 11 -1 11 3 0 42 -55 87 -121z
m375 84 c-10 -10 -19 5 -10 18 6 11 8 11 12 0 2 -7 1 -15 -2 -18z"/>
<path d="M4503 2943 c-23 -5 -29 -20 -39 -104 -6 -51 -4 -56 17 -70 13 -8 42
-14 64 -14 22 0 43 -4 46 -8 6 -8 689 -109 834 -123 59 -6 61 -6 73 21 16 35
26 136 14 153 -5 8 -135 31 -358 63 -192 28 -389 56 -439 64 -63 9 -92 10 -97
2 -4 -7 -11 -7 -22 2 -9 7 -22 11 -31 8 -8 -4 -17 -2 -20 3 -4 6 -9 9 -13 9
-4 -1 -17 -4 -29 -6z m22 -90 c-10 -55 -18 -30 -9 29 5 34 9 44 12 29 2 -13 1
-39 -3 -58z m-22 25 c-7 -52 -23 -75 -23 -32 0 38 10 74 20 74 5 0 6 -19 3
-42z m76 -14 c-8 -59 -19 -84 -19 -43 0 39 12 99 20 99 3 0 3 -25 -1 -56z
m104 26 c-1 -14 -4 -47 -8 -73 -5 -39 -9 -46 -20 -37 -10 8 -14 7 -18 -2 -5
-11 -7 -11 -15 0 -8 11 -2 73 12 122 3 8 5 16 5 18 1 2 11 2 24 0 17 -2 22 -9
20 -28z m-131 -32 c-2 -27 -8 -48 -13 -48 -6 0 -7 16 -4 38 13 78 24 84 17 10z
m59 4 c-4 -50 -21 -66 -21 -20 0 40 9 72 18 63 4 -3 5 -23 3 -43z m145 42 c13
-4 20 -12 18 -22 -1 -10 -6 -38 -9 -63 -5 -37 -11 -48 -27 -52 -29 -8 -60 10
-54 31 2 9 7 38 11 65 6 49 14 54 61 41z m285 -39 c134 -20 255 -38 269 -40
14 -2 62 -9 107 -15 66 -10 84 -16 88 -31 10 -31 -4 -74 -31 -98 -20 -18 -33
-21 -67 -16 -23 4 -57 7 -74 8 -18 1 -33 6 -33 10 0 5 -6 7 -12 4 -7 -2 -21 0
-30 5 -12 6 -18 5 -18 -3 0 -9 -4 -8 -14 0 -8 7 -45 14 -83 17 -86 5 -119 10
-135 20 -7 4 -31 9 -53 10 -78 5 -145 16 -150 24 -3 5 -13 6 -21 3 -14 -5 -15
0 -10 38 10 65 17 99 21 99 1 0 112 -16 246 -35z"/>
<path d="M4905 2524 c-237 -42 -231 -40 -239 -60 -4 -9 -1 -42 5 -73 l11 -57
-59 -60 c-64 -66 -112 -148 -139 -239 -24 -80 -24 -220 0 -300 57 -191 208
-340 396 -390 70 -19 209 -19 277 -1 36 10 64 11 90 5 138 -32 304 20 413 130
202 202 163 545 -79 700 -26 17 -63 36 -82 42 -19 7 -54 31 -79 53 -61 56
-128 101 -181 122 -24 10 -45 18 -47 19 -1 1 -7 28 -13 61 -6 32 -15 65 -21
72 -14 17 -36 15 -253 -24z m243 13 c6 -7 14 -36 18 -64 l6 -51 -43 10 c-68
16 -224 4 -291 -21 -66 -25 -104 -21 -88 9 8 15 7 17 -13 12 -20 -5 -20 -4 -8
11 11 14 11 17 0 17 -9 0 -10 3 -2 11 6 6 75 22 154 35 79 14 162 29 184 34
59 12 71 11 83 -3z m46 -136 c33 -12 78 -32 100 -45 46 -27 126 -94 126 -105
0 -18 -79 6 -133 40 -224 145 -526 84 -670 -133 -61 -94 -81 -160 -80 -273 1
-156 49 -265 161 -365 96 -86 188 -119 332 -120 62 -1 94 -6 119 -19 l35 -19
-53 -11 c-69 -15 -164 -14 -226 2 -43 12 -50 17 -47 35 4 26 -1 27 -23 6 -13
-14 -19 -14 -28 -4 -9 10 -9 11 1 6 6 -4 12 -3 12 2 0 16 -33 24 -42 10 -5 -9
-8 -6 -8 8 0 23 -29 43 -31 21 0 -7 -4 -3 -9 8 -5 11 -9 14 -9 7 -1 -7 -6 -10
-12 -7 -6 4 -8 14 -5 22 3 8 2 12 -3 9 -5 -3 -12 1 -15 10 -4 10 -13 13 -27 9
-14 -5 -20 -3 -18 7 3 28 -1 49 -11 43 -5 -3 -10 -1 -10 5 0 6 -5 8 -12 4 -8
-5 -9 -2 -5 9 3 10 2 17 -4 17 -6 0 -7 4 -4 10 3 5 -3 15 -14 21 -11 7 -17 19
-13 27 3 10 1 13 -6 8 -7 -4 -13 -1 -13 6 -1 7 -2 18 -4 23 -1 6 -3 18 -3 28
-1 11 -9 17 -19 15 -15 -3 -17 3 -15 36 3 25 0 36 -7 32 -7 -5 -9 3 -4 25 4
23 3 30 -5 25 -17 -10 -15 25 3 48 9 12 11 25 5 41 -6 15 -4 27 3 35 9 10 9
11 -3 5 -12 -7 -12 -5 1 11 30 35 34 50 8 29 l-24 -20 23 26 c24 28 29 44 10
33 -7 -4 -6 1 3 12 16 18 28 47 29 69 1 6 10 19 21 31 13 14 16 23 8 31 -7 7
4 26 36 61 75 83 188 148 300 173 64 13 213 3 279 -20z m-59 -56 c60 -16 175
-72 175 -85 0 -5 -22 -11 -50 -15 -75 -10 -183 -67 -244 -128 -126 -126 -168
-315 -106 -481 20 -52 99 -172 124 -188 6 -4 20 -14 31 -22 19 -15 18 -15 -17
-16 -32 0 -36 2 -30 22 3 14 2 19 -6 14 -7 -4 -12 -1 -12 6 0 8 -5 6 -11 -5
-5 -9 -7 -22 -3 -29 4 -7 3 -8 -4 -4 -7 4 -12 15 -12 24 0 13 -2 13 -15 -4
-13 -17 -14 -17 -15 -2 0 9 5 20 10 23 16 10 12 25 -5 19 -9 -4 -15 0 -16 7 0
8 -4 5 -9 -6 -13 -29 -12 -47 2 -39 6 4 8 3 5 -4 -4 -5 -16 -8 -28 -5 -11 3
-16 9 -11 12 6 3 14 19 17 34 6 22 4 26 -8 21 -10 -3 -17 2 -21 14 -4 10 -13
19 -22 19 -19 0 -48 -42 -39 -57 10 -17 25 -11 25 9 0 11 4 22 8 25 5 3 7 -9
4 -27 -3 -25 -1 -29 7 -17 9 13 11 12 11 -3 0 -14 -5 -17 -22 -12 -35 11 -68
34 -68 48 0 8 4 7 10 -3 7 -12 10 -11 16 5 4 11 12 24 18 28 8 6 7 10 -2 14
-6 2 -9 9 -6 15 4 5 -3 5 -16 -2 -20 -11 -21 -10 -15 9 7 22 -9 30 -19 9 -3
-7 -4 6 -1 30 6 46 -5 55 -23 20 -8 -18 -11 -19 -11 -5 -1 9 -6 17 -12 17 -6
0 -8 8 -5 18 4 10 -1 7 -13 -8 l-19 -24 2 42 c1 23 1 42 0 42 -1 0 -11 -15
-23 -32 -11 -18 -21 -26 -21 -18 0 9 7 26 16 38 8 12 12 22 8 22 -3 0 -1 7 6
15 9 11 9 15 1 15 -9 0 -9 6 -1 23 10 19 7 18 -14 -5 -27 -30 -49 -39 -24 -10
9 9 21 28 28 41 l12 24 -31 -22 c-17 -12 -31 -18 -31 -12 0 5 4 13 10 16 5 3
15 15 21 27 9 16 8 19 -2 13 -9 -6 -11 -3 -6 9 4 11 3 15 -4 11 -6 -4 -8 -13
-6 -19 3 -7 -1 -13 -9 -13 -18 0 -17 2 1 31 14 21 14 24 1 29 -9 4 -22 -3 -31
-16 -8 -12 -15 -18 -15 -13 0 13 37 56 43 50 3 -3 8 0 13 7 4 8 3 10 -4 5 -16
-10 -15 6 1 24 6 8 2 6 -10 -4 -13 -11 -23 -14 -23 -8 0 6 5 14 11 18 6 3 9
19 6 34 -5 21 2 38 26 71 17 24 24 38 14 30 -12 -9 -17 -10 -17 -2 0 7 -5 9
-12 5 -7 -4 -8 -3 -4 5 4 6 11 9 16 6 9 -5 40 38 40 56 0 7 7 21 17 31 25 28
10 30 -20 2 -15 -14 -27 -20 -27 -15 0 14 125 118 171 141 95 49 219 62 324
35z m310 -120 c81 -22 152 -64 214 -130 144 -152 159 -389 36 -557 -34 -47
-128 -128 -147 -128 -6 0 -8 17 -6 39 2 22 0 37 -4 35 -5 -3 -8 -23 -8 -45 0
-36 -3 -41 -35 -55 -71 -30 -222 -37 -212 -10 3 6 9 10 15 9 17 -4 24 46 8 62
-12 13 -16 8 -26 -35 -13 -56 -12 -54 -55 -39 l-32 12 14 40 c8 22 12 45 10
51 -5 12 -12 -2 -21 -47 -9 -38 -29 -43 -72 -17 -27 18 -34 27 -30 44 4 19 4
19 -7 4 -12 -15 -14 -15 -33 0 -40 34 -47 50 -31 67 14 13 16 13 19 -5 4 -28
22 -25 30 5 3 13 3 24 0 23 -25 -3 -33 4 -27 22 10 30 -1 24 -29 -16 -13 -19
-27 -31 -30 -25 -4 5 5 20 18 33 13 13 25 32 26 43 6 56 -2 56 -30 0 -16 -33
-30 -54 -30 -47 0 7 7 27 16 43 8 17 13 36 11 42 -2 7 2 29 9 50 7 21 9 35 4
32 -5 -3 -17 -31 -27 -62 -15 -47 -19 -52 -23 -32 -4 13 -3 27 2 30 14 9 26
65 18 79 -6 9 -11 8 -20 -6 -10 -17 -11 -17 -6 5 3 17 2 21 -6 13 -6 -6 -12
-28 -13 -49 -4 -64 -6 -70 -16 -44 -5 13 -7 33 -3 44 4 13 2 17 -5 13 -6 -4
-11 0 -11 9 0 11 5 15 14 12 9 -4 19 6 27 26 8 18 13 35 11 39 -1 4 3 19 8 33
6 16 6 25 0 25 -6 0 -10 -7 -10 -15 0 -8 -5 -15 -11 -15 -12 0 -4 16 25 49 12
13 15 21 9 17 -15 -8 -17 3 -4 23 6 9 6 22 1 31 -6 11 -5 22 3 30 10 12 9 12
-5 1 -12 -9 -16 -22 -13 -42 3 -15 0 -31 -5 -34 -7 -4 -9 3 -6 19 3 14 1 26
-3 26 -5 0 -6 11 -3 25 2 14 8 22 13 20 4 -3 13 3 18 14 8 14 8 20 -2 24 -21
7 114 131 173 160 97 47 203 58 305 32z m-855 -319 c0 -2 -8 -10 -17 -17 -16
-13 -17 -12 -4 4 13 16 21 21 21 13z m317 -83 c-3 -10 -5 -4 -5 12 0 17 2 24
5 18 2 -7 2 -21 0 -30z m-326 -7 c-7 -8 -9 -21 -5 -28 5 -10 4 -10 -5 -2 -10
9 -10 16 0 32 7 12 15 19 18 17 2 -3 -2 -11 -8 -19z m334 -42 c-8 -16 -15 -23
-15 -16 0 17 20 55 26 49 2 -2 -2 -17 -11 -33z m-324 -21 c-12 -20 -14 -14 -5
12 4 9 9 14 11 11 3 -2 0 -13 -6 -23z m25 -68 c0 -14 -4 -25 -8 -25 -10 0 -10
13 -2 34 9 23 12 20 10 -9z m-84 -17 c-7 -7 -12 -8 -12 -2 0 14 12 26 19 19 2
-3 -1 -11 -7 -17z m418 -54 c0 -8 -4 -12 -10 -9 -5 3 -10 10 -10 16 0 5 5 9
10 9 6 0 10 -7 10 -16z m-215 -94 c16 -17 16 -20 3 -15 -9 4 -19 13 -22 21 -7
19 -2 18 19 -6z"/>
<path d="M4516 1733 c-6 -14 -5 -15 5 -6 7 7 10 15 7 18 -3 3 -9 -2 -12 -12z"/>
<path d="M4619 2003 c-13 -16 -12 -17 4 -4 16 13 21 21 13 21 -2 0 -10 -8 -17
-17z"/>
<path d="M4966 1783 c-6 -14 -5 -15 5 -6 7 7 10 15 7 18 -3 3 -9 -2 -12 -12z"/>
<path d="M5124 1509 c-5 -13 -8 -33 -6 -44 l5 -20 8 20 c7 16 8 13 6 -13 -2
-20 0 -29 6 -23 10 10 16 81 5 75 -3 -2 -8 3 -10 13 -2 13 -5 12 -14 -8z"/>
<path d="M5561 1464 c0 -11 3 -14 6 -6 3 7 2 16 -1 19 -3 4 -6 -2 -5 -13z"/>
<path d="M5176 1455 c-3 -9 -6 -26 -5 -38 1 -16 4 -12 10 12 10 34 6 55 -5 26z"/>
<path d="M5242 1458 c-14 -14 -17 -42 -3 -34 4 3 6 -6 3 -19 -2 -14 0 -25 5
-25 10 0 35 71 28 79 -3 2 -5 -2 -6 -10 0 -9 -3 -8 -7 4 -6 14 -10 15 -20 5z"/>
<path d="M5491 1424 c0 -11 3 -14 6 -6 3 7 2 16 -1 19 -3 4 -6 -2 -5 -13z"/>
<path d="M5326 1404 c-4 -14 -5 -28 -3 -31 3 -2 8 8 11 23 4 14 5 28 3 31 -3
2 -8 -8 -11 -23z"/>
<path d="M5388 1410 c-7 -24 -3 -38 8 -28 3 4 4 17 2 30 l-3 23 -7 -25z"/>
<path d="M5357 1393 c-4 -3 -7 -11 -7 -17 0 -6 5 -5 12 2 6 6 9 14 7 17 -3 3
-9 2 -12 -2z"/>
<path d="M1404 2200 c-12 -5 -24 -16 -28 -25 -3 -9 -10 -14 -15 -10 -6 3 -15
-4 -21 -15 -6 -11 -17 -20 -24 -20 -8 0 -166 -122 -352 -271 -237 -190 -340
-278 -342 -294 -2 -14 12 -41 37 -73 42 -52 70 -69 95 -55 46 27 675 541 679
556 3 9 12 17 20 17 8 0 17 7 21 15 3 8 12 15 21 15 8 0 15 7 15 15 0 8 5 15
10 15 19 0 10 24 -31 76 -45 59 -55 65 -85 54z m76 -66 c18 -25 30 -47 28 -50
-6 -6 -68 72 -68 85 0 19 8 12 40 -35z m20 -79 c0 -5 -18 10 -40 35 -21 25
-39 40 -40 34 0 -6 7 -17 16 -24 8 -8 20 -23 26 -34 10 -19 8 -18 -16 3 -14
14 -26 19 -26 13 0 -6 4 -14 10 -17 5 -3 15 -16 20 -28 6 -12 -7 -2 -29 23
-45 50 -55 47 -16 -4 27 -35 30 -46 16 -46 -17 0 -52 71 -45 92 6 18 7 19 25
2 10 -9 19 -12 19 -6 0 6 -4 14 -10 17 -6 4 -5 11 3 20 10 12 18 7 49 -28 21
-23 38 -46 38 -52z m-118 -22 l36 -46 -147 -119 c-80 -65 -159 -129 -175 -141
-42 -32 -210 -168 -287 -232 -37 -30 -70 -55 -75 -55 -4 0 -18 10 -31 22 -34
32 -32 94 2 110 19 8 22 14 13 20 -9 5 -6 8 9 8 29 0 78 51 60 62 -7 5 1 8 21
8 22 0 32 5 32 15 0 8 5 15 12 15 6 0 9 3 6 6 -6 5 27 44 37 44 12 0 105 63
101 68 -6 5 26 27 57 38 10 4 16 13 13 20 -3 8 1 14 10 14 8 0 32 18 54 40 22
22 46 40 55 40 8 0 15 5 15 10 0 6 7 10 15 10 8 0 15 7 15 15 0 8 7 15 16 15
8 0 12 5 9 10 -3 6 1 10 9 10 9 0 25 9 36 20 29 29 42 25 82 -27z"/>
<path d="M1731 2095 c-29 -25 -62 -51 -72 -59 -11 -7 -19 -18 -17 -25 2 -6
-112 -101 -252 -212 l-255 -200 -21 27 -22 27 -161 -128 c-95 -76 -161 -136
-161 -146 0 -24 60 -108 91 -126 27 -16 27 -16 188 112 89 71 161 131 161 134
0 3 -7 15 -15 25 -8 11 -15 23 -15 27 0 13 484 403 501 404 18 1 169 113 169
125 0 14 -41 60 -54 60 -7 0 -36 -20 -65 -45z m88 -9 c-2 -1 -32 -24 -67 -50
-35 -27 -66 -45 -70 -41 -4 4 4 15 17 24 14 9 45 33 70 53 25 20 48 32 50 27
1 -6 1 -11 0 -13z m-159 -120 c-8 -7 -114 -94 -235 -191 -121 -98 -228 -185
-238 -193 -9 -8 -20 -13 -23 -9 -8 8 20 36 81 82 28 20 52 40 55 44 3 3 32 26
65 51 33 24 72 57 88 72 15 16 31 28 35 28 4 0 18 10 32 23 50 45 133 107 143
107 6 0 5 -6 -3 -14z m-502 -416 c18 -23 31 -46 30 -50 -2 -4 -70 -62 -152
-129 -118 -96 -152 -119 -165 -111 -27 14 -42 36 -51 74 -6 29 -4 38 16 55 13
12 27 21 30 21 2 0 16 11 30 25 14 14 31 25 39 25 9 0 12 6 9 15 -4 11 3 19
24 26 17 6 33 17 36 25 3 8 11 14 18 14 8 0 20 9 28 21 16 22 48 39 65 35 6
-1 25 -22 43 -46z"/>
<path d="M1767 1916 c-10 -8 -39 -56 -65 -107 -26 -52 -164 -290 -305 -529
-142 -239 -259 -438 -260 -442 -3 -10 472 -228 477 -220 2 4 22 66 45 137 143
442 298 898 322 947 50 100 32 171 -55 212 -41 19 -134 21 -159 2z m88 -13
c19 -9 35 -23 35 -30 0 -7 8 -13 17 -13 9 0 13 -3 10 -6 -3 -4 -2 -15 3 -25 8
-13 6 -20 -7 -28 -24 -14 -8 -14 20 0 17 8 16 5 -6 -15 -15 -14 -23 -26 -17
-26 6 0 8 -4 5 -10 -3 -6 1 -7 10 -4 11 5 14 2 9 -10 -3 -9 -10 -16 -15 -16
-5 0 -9 -4 -9 -10 0 -5 7 -7 15 -4 11 4 13 2 9 -9 -3 -8 -17 -18 -31 -22 -24
-6 -25 -7 -7 -20 18 -14 18 -14 -1 -10 -11 2 -49 17 -85 33 -36 16 -80 33 -97
37 -18 3 -33 8 -33 9 0 2 18 42 40 89 50 110 68 122 135 90z m-63 -231 c50
-23 57 -29 53 -50 -3 -19 -1 -23 13 -18 14 5 13 2 -3 -12 -23 -21 -30 -42 -13
-42 6 0 4 -8 -6 -19 -12 -13 -14 -20 -5 -23 7 -2 -1 -17 -20 -36 -31 -30 -31
-32 -9 -30 16 2 22 -1 19 -12 -2 -8 -3 -25 -3 -36 1 -12 -9 -33 -22 -47 -13
-14 -21 -28 -18 -31 3 -4 -3 -13 -14 -22 -13 -11 -15 -17 -7 -20 10 -4 10 -11
2 -25 -5 -11 -7 -24 -3 -30 4 -6 0 -15 -7 -20 -12 -7 -12 -9 0 -9 11 0 11 -3
1 -15 -7 -8 -9 -15 -5 -15 3 0 -3 -12 -15 -27 -13 -17 -17 -29 -10 -31 6 -2 0
-15 -14 -29 -14 -14 -23 -29 -21 -34 3 -4 -6 -16 -20 -25 -20 -13 -23 -19 -13
-25 11 -7 11 -9 0 -9 -7 0 -10 -4 -7 -10 3 -5 2 -10 -3 -10 -5 0 -12 -11 -14
-25 -5 -22 -2 -24 18 -19 35 9 29 -2 -17 -33 -40 -27 -41 -28 -18 -34 14 -4
17 -7 8 -8 -22 -1 -39 -23 -41 -55 -2 -16 -8 -26 -18 -26 -30 0 -355 157 -352
170 2 7 105 186 230 397 l227 384 35 -6 c19 -4 61 -18 92 -33z m-97 -712 c-3
-5 -12 -10 -18 -10 -7 0 -6 4 3 10 19 12 23 12 15 0z m-489 -71 c7 -12 -42
-67 -52 -57 -7 7 26 68 38 68 4 0 10 -5 14 -11z m24 -58 c-11 -22 -30 -28 -30
-11 0 6 8 23 17 37 14 21 19 23 21 11 2 -10 -2 -26 -8 -37z m52 7 c-7 -7 -12
-20 -12 -30 0 -10 -7 -18 -15 -18 -19 0 -19 2 2 45 11 24 20 32 27 25 7 -7 6
-14 -2 -22z m32 -36 c-4 -18 -13 -32 -20 -32 -18 0 -17 4 2 41 19 37 26 33 18
-9z m56 19 c0 -17 -22 -71 -29 -71 -18 0 -19 14 -4 46 16 32 33 45 33 25z m36
-36 c-6 -33 -14 -45 -31 -45 -12 0 -12 6 2 35 19 41 35 46 29 10z m29 -44
c-22 -43 -39 -29 -18 14 10 21 20 32 26 26 5 -5 2 -22 -8 -40z m46 -14 c-6
-15 -17 -27 -26 -27 -13 0 -13 5 2 35 19 40 39 33 24 -8z m42 -5 c-8 -23 -24
-42 -34 -42 -5 0 -1 16 8 35 16 34 38 40 26 7z m47 3 c0 -20 -22 -65 -32 -65
-11 0 -10 7 4 47 12 34 28 44 28 18z m36 -27 c-3 -28 -22 -65 -30 -57 -7 7 15
79 25 79 4 0 7 -10 5 -22z"/>
<path d="M1590 1376 c0 -2 8 -10 18 -17 15 -13 16 -12 3 4 -13 16 -21 21 -21
13z"/>
<path d="M4293 1898 c-24 -5 -43 -13 -43 -18 0 -7 227 -996 275 -1197 4 -19
10 -21 43 -16 59 9 82 21 82 41 0 11 -56 259 -124 553 -68 294 -130 560 -137
592 -14 63 -15 64 -96 45z m90 -75 c23 -103 22 -106 -14 -50 -34 50 -49 59
-49 27 0 -11 -4 -20 -10 -20 -5 0 -10 24 -10 54 0 57 0 57 55 65 6 0 18 -34
28 -76z m-23 -69 c0 -8 -4 -14 -10 -14 -5 0 -10 4 -10 9 0 5 -3 18 -7 28 -6
16 -5 16 10 4 9 -7 17 -20 17 -27z m35 -44 c21 -23 14 -36 -12 -25 -10 5 -22
9 -28 9 -5 1 -11 9 -13 19 -5 24 30 22 53 -3z m43 -127 c11 -49 19 -89 17 -91
-2 -2 -19 -5 -37 -5 -29 -2 -34 2 -43 31 -5 17 -12 32 -15 32 -3 0 -5 23 -5
52 0 53 6 59 57 67 3 1 15 -38 26 -86z m49 -209 c32 -142 80 -346 119 -513 19
-80 32 -151 30 -158 -6 -15 -46 -18 -46 -3 0 5 -6 7 -14 4 -11 -4 -16 7 -22
43 -4 26 -11 59 -16 73 -5 14 -12 39 -14 55 -5 41 -12 73 -23 119 -5 22 -7 45
-3 50 3 6 -3 4 -13 -4 -17 -14 -18 -13 -11 10 11 36 9 63 -9 96 -8 16 -15 40
-15 54 0 14 -4 32 -9 40 -6 8 -7 19 -3 24 10 17 9 46 -1 39 -5 -3 -8 0 -5 8 3
8 -2 20 -9 28 -8 8 -12 22 -10 33 3 10 1 16 -4 12 -14 -8 -11 20 4 35 10 11 9
12 -2 6 -11 -6 -13 -4 -8 8 4 10 1 17 -5 17 -17 0 3 17 27 23 11 2 24 4 30 3
5 -2 19 -47 32 -102z"/>
<path d="M2203 1859 l-33 -10 0 -633 c0 -569 2 -635 16 -647 21 -18 147 -18
168 0 14 12 16 78 16 647 l0 633 -37 10 c-45 13 -86 13 -130 0z m144 -26 c5
-10 8 -99 8 -198 l-1 -180 -41 -3 c-32 -2 -44 1 -55 17 -8 12 -18 18 -21 14
-4 -3 -7 12 -7 35 0 28 5 44 18 51 13 8 14 11 2 11 -10 0 -7 7 10 20 14 11 20
20 13 20 -6 0 -15 -4 -18 -10 -3 -5 -11 -10 -16 -10 -5 0 -2 11 6 24 10 15 12
26 6 30 -6 4 -7 14 -4 23 5 13 2 15 -11 10 -12 -5 -15 -3 -10 5 11 18 12 128
1 128 -5 0 -4 7 3 15 19 22 107 20 117 -2z m6 -820 c0 -231 -4 -426 -8 -433
-5 -8 -23 -10 -51 -6 -55 6 -64 12 -64 37 0 12 -5 17 -10 14 -12 -7 -5 78 7
99 4 6 -1 4 -12 -4 -18 -15 -18 -14 -1 19 10 18 13 30 7 27 -16 -10 -13 6 6
34 16 22 16 23 -1 17 -10 -4 -15 -3 -11 4 4 5 8 27 10 49 2 21 6 43 9 48 10
16 -5 43 -18 35 -7 -5 -5 -1 4 7 25 23 31 48 13 54 -9 4 -13 14 -10 25 2 10 0
25 -4 34 -6 10 -5 18 2 23 8 5 9 3 4 -6 -5 -8 -4 -11 2 -7 6 4 8 18 5 32 -2
14 1 32 8 40 11 13 10 14 -6 8 -17 -6 -17 -5 -5 10 7 9 10 17 6 17 -4 0 -1 8
6 17 9 11 2 9 -21 -7 l-35 -23 35 38 c19 21 29 35 23 31 -8 -4 -13 -2 -13 5 0
8 -6 6 -18 -4 -16 -15 -19 -15 -19 -2 0 8 3 13 5 10 11 -11 40 27 35 46 -4 12
2 26 13 35 11 9 12 12 4 8 -8 -4 -24 -15 -36 -26 -16 -14 -21 -15 -21 -4 0 8
5 14 11 13 6 -1 10 4 8 11 -1 8 2 11 7 8 5 -4 16 7 25 24 8 17 10 28 5 25 -5
-4 -9 1 -9 9 0 21 -9 20 -34 -1 -21 -18 -21 -18 -2 4 17 20 73 32 135 29 13
-1 15 -62 14 -423z m-150 -28 c-3 -9 -8 -14 -10 -11 -3 3 -2 9 2 15 9 16 15
13 8 -4z"/>
<path d="M3722 1820 c-23 -5 -54 -15 -70 -22 l-27 -13 -3 -179 c-1 -113 1
-183 8 -190 6 -6 10 -137 10 -368 l0 -357 56 -17 c72 -21 293 -17 339 6 l30
15 3 355 c1 216 6 358 12 364 15 15 13 361 -2 373 -43 33 -260 53 -356 33z
m223 -10 c39 -6 82 -15 98 -21 l27 -11 0 -181 0 -180 -77 7 c-105 9 -103 8
-103 18 0 4 -9 8 -21 8 -11 0 -18 -4 -15 -8 2 -4 -4 -9 -15 -9 -12 -1 -17 3
-13 10 5 8 3 8 -7 0 -7 -7 -22 -13 -33 -13 -20 0 -20 0 0 16 14 12 15 14 3 11
-9 -3 -21 -1 -27 5 -7 7 -16 6 -30 -1 -27 -14 -36 -2 -15 21 16 18 16 18 -3
12 -16 -7 -17 -5 -7 8 7 8 10 18 6 21 -3 4 0 13 7 22 11 13 10 14 -6 8 -16 -6
-17 -5 -6 9 11 14 10 17 -10 23 -22 8 -22 8 7 31 17 13 24 24 16 24 -9 0 -12
8 -9 25 5 25 -5 34 -17 15 -3 -5 -12 -10 -18 -10 -7 0 -1 9 13 20 14 11 19 20
11 20 -11 0 -11 3 0 17 11 13 11 17 1 21 -10 3 -10 7 -1 18 10 12 9 13 -5 8
-24 -9 -20 3 7 18 19 11 84 22 152 26 11 1 52 -3 90 -8z m-188 -363 c0 -7 -9
-14 -19 -14 -16 -2 -17 1 -8 13 15 18 27 18 27 1z m300 -389 l-2 -353 -26 -12
c-15 -7 -54 -16 -88 -19 -48 -6 -61 -4 -61 7 0 11 -2 11 -10 -1 -8 -13 -10
-13 -10 2 0 11 -10 20 -27 23 -16 4 -35 10 -44 15 -9 5 -20 6 -23 2 -14 -13
-33 -9 -32 6 0 9 -9 21 -21 27 -24 10 -32 48 -13 60 6 3 8 18 5 33 -2 14 1 33
8 41 9 12 9 13 0 7 -18 -10 -16 9 2 24 9 7 13 15 10 18 -3 3 -15 -3 -27 -14
l-23 -19 20 23 c16 20 17 25 5 32 -8 6 -12 10 -7 10 4 0 -2 18 -13 40 -21 41
-27 155 -9 166 16 10 9 23 -8 17 -13 -5 -11 -1 6 18 30 32 48 64 29 53 -7 -4
-4 3 7 16 l20 23 -25 -8 -24 -8 18 28 c18 27 18 28 0 21 -17 -7 -17 -6 1 14
10 11 13 20 7 20 -5 0 -8 9 -5 20 5 19 14 20 184 20 l178 0 -2 -352z m-387
322 c0 -5 -5 -10 -11 -10 -5 0 -7 5 -4 10 3 6 8 10 11 10 2 0 4 -4 4 -10z m30
-494 c0 -2 -8 -10 -17 -17 -16 -13 -17 -12 -4 4 13 16 21 21 21 13z m-9 -44
c-5 -10 -18 -25 -27 -33 -11 -9 -9 -2 6 19 26 35 36 42 21 14z"/>
<path d="M3963 1085 c0 -22 2 -30 4 -17 2 12 2 30 0 40 -3 9 -5 -1 -4 -23z"/>
<path d="M3932 1080 c0 -14 2 -19 5 -12 2 6 2 18 0 25 -3 6 -5 1 -5 -13z"/>
<path d="M2653 1788 c-12 -6 -29 -25 -37 -42 -16 -35 -15 -209 8 -859 12 -339
14 -359 33 -379 25 -24 55 -18 71 16 6 14 15 193 21 457 6 239 13 499 15 578
5 157 -2 195 -45 225 -27 18 -35 19 -66 4z m62 -18 c3 -5 1 -10 -4 -10 -6 0
-12 -8 -12 -17 -1 -17 -2 -17 -6 0 -2 9 -9 17 -14 17 -6 0 -8 -4 -5 -8 2 -4 1
-14 -5 -22 -7 -12 -9 -9 -9 10 0 20 -2 22 -10 10 -5 -8 -10 -10 -10 -4 0 28
60 48 75 24z m33 -247 l-3 -118 -48 -3 c-38 -2 -47 0 -41 10 11 17 12 98 1 98
-5 0 -4 6 2 14 8 9 8 16 2 20 -5 4 -9 24 -9 46 0 42 7 47 66 49 l33 1 -3 -117z
m0 -155 c3 -14 -4 -18 -30 -18 -33 0 -58 14 -58 33 0 4 19 7 42 5 31 -2 44 -8
46 -20z m-4 -175 c-2 -76 -6 -190 -9 -253 -2 -63 -5 -176 -5 -250 0 -74 -5
-142 -10 -150 -15 -24 -46 1 -42 34 1 14 -1 26 -6 26 -5 0 -7 12 -5 28 6 33 7
51 3 174 -2 76 -5 95 -16 91 -11 -4 -11 0 0 24 20 42 28 73 19 73 -10 0 -9
172 1 188 3 6 1 12 -6 14 -12 4 -13 65 -3 99 4 11 2 19 -4 19 -6 0 -11 5 -11
10 0 6 22 10 49 10 l50 0 -5 -137z"/>
<path d="M3157 1769 c-38 -9 -117 -45 -117 -54 0 -3 15 -28 34 -57 98 -155 96
-142 96 -692 0 -424 1 -471 16 -488 23 -24 40 -23 59 6 13 19 23 115 45 438
17 227 34 442 39 477 12 77 45 146 111 234 l50 67 -50 25 c-96 49 -196 64
-283 44z m222 -34 c58 -21 63 -24 55 -37 -4 -6 -10 -6 -17 1 -8 8 -16 6 -30
-7 -19 -17 -20 -16 -7 7 7 15 8 21 1 17 -6 -4 -11 -2 -11 5 0 7 -9 2 -20 -11
-11 -13 -20 -18 -20 -12 0 7 -4 12 -10 12 -5 0 -10 -7 -10 -15 0 -8 5 -15 10
-15 14 0 13 -27 -2 -36 -8 -5 -9 -1 -5 12 7 18 6 18 -9 -1 -15 -19 -15 -19 -9
10 4 17 8 35 10 42 5 16 -12 27 -18 11 -3 -10 -7 -10 -20 1 -9 7 -24 11 -32 7
-8 -3 -15 0 -15 6 0 7 -5 6 -15 -2 -12 -10 -18 -10 -30 0 -8 7 -12 17 -8 22 9
15 158 3 212 -17z m-229 -5 c0 -11 5 -19 11 -17 6 1 15 -8 20 -20 5 -14 5 -23
-1 -23 -6 0 -10 7 -10 15 0 14 -12 20 -34 16 -5 -1 -6 5 -2 14 3 10 2 14 -5 9
-6 -3 -9 -15 -6 -25 3 -13 1 -17 -6 -12 -7 4 -20 8 -29 8 -28 0 -20 18 15 37
42 22 47 22 47 -2z m97 -42 c-3 -7 -5 -2 -5 12 0 14 2 19 5 13 2 -7 2 -19 0
-25z m116 2 c-5 -19 -23 -39 -23 -25 0 9 20 45 24 45 2 0 2 -9 -1 -20z m57
-11 c0 -5 -4 -9 -8 -9 -5 0 -9 7 -9 15 0 8 4 12 9 9 4 -3 8 -9 8 -15z m40 11
c0 -5 -7 -10 -16 -10 -8 0 -12 5 -9 10 3 6 10 10 16 10 5 0 9 -4 9 -10z m-307
-69 c8 -40 0 -37 -23 8 -20 40 -20 41 -1 29 11 -6 22 -23 24 -37z m32 -31 c3
-5 1 -10 -4 -10 -6 0 -11 5 -11 10 0 6 2 10 4 10 3 0 8 -4 11 -10z m131 -200
c-3 -22 -9 -58 -12 -80 -3 -22 -10 -40 -15 -40 -6 0 -7 5 -3 12 5 8 2 9 -9 5
-9 -3 -23 1 -32 9 -8 9 -15 13 -15 9 0 -3 -6 0 -14 7 -14 13 -14 27 -1 59 3
10 1 20 -5 24 -24 15 12 35 62 35 l50 0 -6 -40z m-21 -150 c0 -11 -10 -15 -33
-13 -37 1 -47 7 -38 21 9 16 71 9 71 -8z m-4 -34 c2 -3 1 -49 -2 -103 -4 -54
-15 -208 -24 -343 -9 -135 -20 -249 -24 -253 -4 -4 -13 -2 -19 6 -13 15 -15
61 -10 225 2 56 -1 102 -5 102 -4 0 -3 9 3 19 15 29 13 51 -5 45 -10 -4 -15 0
-15 12 0 9 3 14 7 11 4 -4 13 11 21 34 9 28 10 44 3 48 -6 4 -6 12 -2 20 5 8
5 27 0 44 -5 18 -4 37 2 48 5 11 9 25 8 32 -5 43 1 57 29 57 16 0 31 -2 33 -4z"/>
</g>
</svg>
