<?xml version="1.0" standalone="no"?>
<!DOCTYPE svg PUBLIC "-//W3C//DTD SVG 20010904//EN"
 "http://www.w3.org/TR/2001/REC-SVG-20010904/DTD/svg10.dtd">
<svg version="1.0" xmlns="http://www.w3.org/2000/svg"
 width="626.000000pt" height="487.000000pt" viewBox="0 0 626.000000 487.000000"
 preserveAspectRatio="xMidYMid meet">

<g transform="translate(0.000000,487.000000) scale(0.100000,-0.100000)"
fill="#000000" stroke="none">
<path d="M2080 4781 c-95 -30 -199 -117 -226 -187 -9 -25 -14 -47 -10 -51 3
-3 6 -1 6 6 0 6 10 22 21 34 20 21 20 19 -2 -20 -13 -23 -28 -39 -33 -36 -5 4
-7 -3 -4 -15 4 -14 2 -20 -4 -16 -20 13 -3 -147 20 -193 19 -37 22 -58 22
-179 0 -119 3 -143 21 -181 12 -24 30 -48 40 -54 21 -11 26 0 7 19 -8 8 -8 12
-1 12 6 0 13 -7 17 -15 6 -16 36 -21 36 -6 0 5 22 24 50 42 l49 32 -43 27
c-61 39 -88 89 -110 200 -3 14 -10 41 -15 60 -6 19 -11 38 -11 42 0 13 71 44
163 72 48 15 87 28 87 29 0 2 -9 29 -20 61 -28 78 -19 83 10 6 l23 -61 41 7
c54 8 58 12 45 35 -6 12 -8 23 -5 26 3 3 11 -6 17 -20 6 -14 21 -27 32 -29 47
-7 62 -156 32 -312 -9 -50 -13 -100 -9 -115 6 -22 9 -15 20 43 16 86 28 100
19 24 -7 -55 -6 -58 15 -58 35 0 58 18 70 55 14 43 35 47 27 5 -6 -29 -5 -30
29 -30 27 0 37 5 44 23 7 17 9 18 9 5 1 -22 0 -22 45 -3 20 8 36 20 36 26 0 5
5 7 10 4 20 -13 40 17 40 59 0 142 -143 435 -267 546 -29 26 -72 53 -104 64
-58 20 -198 30 -239 17z m-94 -868 c-5 -6 -46 57 -46 71 0 5 11 -8 25 -29 15
-20 24 -40 21 -42z"/>
<path d="M2175 4371 c-35 -16 -88 -61 -72 -61 3 0 28 11 55 25 28 14 65 25 83
25 20 0 29 4 24 9 -21 19 -52 20 -90 2z"/>
<path d="M1937 4303 c-12 -12 -7 -22 8 -17 8 3 29 1 47 -5 l33 -11 -24 20
c-23 20 -52 26 -64 13z"/>
<path d="M2165 4301 c-9 -16 -1 -72 12 -83 9 -7 21 -7 41 1 23 10 28 17 24 37
-2 13 -8 27 -13 30 -5 3 -8 0 -7 -7 2 -6 -3 -14 -9 -16 -19 -7 -29 27 -12 38
11 7 9 9 -8 9 -12 0 -24 -4 -28 -9z"/>
<path d="M1957 4243 c-4 -3 -7 -16 -7 -29 0 -23 17 -34 56 -34 28 0 32 25 9
56 -14 18 -14 18 -8 -3 4 -17 1 -23 -11 -23 -9 0 -16 8 -16 20 0 20 -11 26
-23 13z"/>
<path d="M2553 3947 c-59 -67 -162 -296 -183 -406 -6 -30 -12 -56 -14 -58 -9
-9 -80 132 -101 200 -26 81 -32 123 -20 150 10 25 -1 33 -22 15 -10 -8 -38
-26 -63 -40 -25 -15 -56 -39 -70 -54 -15 -17 -17 -22 -6 -14 19 15 19 14 2
-12 -18 -28 -33 -39 -21 -15 4 6 -1 3 -9 -7 -9 -11 -16 -25 -16 -30 0 -6 5 -4
11 4 9 13 10 13 6 -1 -3 -10 -11 -36 -18 -58 -9 -29 -15 -38 -21 -29 -6 8 -7
0 -3 -21 6 -25 4 -32 -5 -26 -10 6 -12 1 -8 -19 3 -14 2 -26 -1 -26 -8 0 -47
-138 -45 -157 1 -7 -2 -10 -8 -7 -5 3 -6 -6 -3 -23 4 -18 3 -23 -2 -15 -7 9
-12 3 -20 -21 l-10 -34 86 -29 c61 -21 105 -29 152 -29 l67 0 36 -86 c32 -76
38 -103 51 -238 14 -141 34 -221 55 -221 11 0 23 17 57 80 30 57 37 73 124
305 29 77 63 156 75 175 13 19 28 50 35 68 13 37 13 37 116 -7 35 -14 63 -29
63 -33 0 -37 -170 -345 -281 -508 -32 -47 -61 -98 -65 -115 -4 -16 -15 -42
-25 -56 -10 -14 -15 -30 -11 -34 4 -5 2 -6 -3 -3 -15 9 -68 -38 -70 -60 -1
-16 12 -23 75 -41 87 -24 103 -25 128 -12 9 5 53 14 97 21 44 6 109 17 145 25
71 16 210 19 278 6 51 -10 50 -13 22 124 -30 146 -48 214 -74 280 -14 33 -27
76 -30 96 -4 21 -16 48 -27 62 -46 60 -89 197 -60 197 5 0 11 37 14 83 3 45
13 129 22 187 20 124 16 197 -15 268 -29 68 -82 113 -179 153 -42 17 -96 42
-120 55 -24 13 -47 24 -51 24 -4 0 -21 -15 -37 -33z m181 -341 c-15 -59 -29
-104 -31 -102 -2 2 7 50 21 105 14 56 26 105 26 108 0 4 3 4 6 0 3 -3 -6 -53
-22 -111z m-577 -148 c-2 -24 -4 -7 -4 37 0 44 2 63 4 43 2 -21 2 -57 0 -80z
m10 -95 c-3 -10 -5 -4 -5 12 0 17 2 24 5 18 2 -7 2 -21 0 -30z m51 -125 c18
-32 30 -58 27 -58 -6 0 -65 103 -65 114 0 12 1 10 38 -56z m269 -4 c-3 -3 -12
-4 -19 -1 -8 3 -5 6 6 6 11 1 17 -2 13 -5z"/>
<path d="M1092 2760 c-125 -26 -240 -119 -266 -213 -21 -75 -28 -181 -16 -227
7 -27 25 -51 62 -82 44 -37 59 -43 110 -48 32 -3 58 -5 58 -4 0 1 -15 17 -34
36 -33 33 -55 88 -70 175 -5 28 -2 32 27 42 17 7 75 36 128 67 134 76 184 82
248 28 38 -31 39 -26 6 23 -31 45 -30 87 2 91 12 2 30 -6 43 -20 29 -30 63
-105 57 -127 -2 -10 4 -33 14 -52 16 -30 18 -31 19 -11 0 19 3 21 19 12 11 -5
28 -10 38 -9 10 0 13 3 6 6 -7 2 -13 9 -13 14 0 6 5 7 10 4 6 -3 10 -2 10 3 0
6 -6 12 -13 15 -7 2 -28 36 -47 73 -44 88 -113 156 -186 184 -66 24 -152 33
-212 20z m-72 -34 c0 -2 -17 -15 -37 -27 -21 -13 -44 -27 -50 -32 -7 -4 -13
-5 -13 -2 0 5 89 65 97 65 2 0 3 -2 3 -4z m10 -70 c0 -2 -7 -7 -16 -10 -8 -3
-12 -2 -9 4 6 10 25 14 25 6z m65 -34 c-16 -14 -131 -76 -120 -65 15 16 109
73 120 73 6 0 6 -3 0 -8z m-188 -396 c14 -17 12 -16 -10 3 -17 16 -27 34 -26
50 l1 26 8 -29 c5 -15 17 -38 27 -50z"/>
<path d="M5656 2580 c-37 -45 -50 -95 -38 -157 9 -51 9 -52 -12 -40 -12 6 -23
11 -26 10 -12 -3 -9 107 4 149 l14 47 -34 -16 c-18 -9 -30 -21 -27 -26 3 -6 1
-7 -6 -3 -16 10 -65 -28 -91 -70 -29 -46 -29 -114 -1 -189 12 -32 20 -59 19
-60 -2 -2 -14 -5 -27 -7 -16 -2 -28 4 -38 22 l-15 25 21 -25 21 -25 -21 49
c-16 38 -20 63 -17 112 2 35 3 64 2 64 -9 0 -96 -145 -112 -185 -33 -86 1
-146 91 -160 66 -10 77 -15 77 -35 0 -14 -9 -19 -39 -22 -22 -2 -38 -2 -36 0
8 8 -20 29 -32 25 -6 -2 -28 12 -49 31 -21 20 -42 36 -46 36 -9 0 -11 -30 -8
-95 2 -43 26 -112 36 -102 4 3 -1 24 -10 47 -20 49 -20 50 -1 50 26 0 75 -37
108 -81 28 -39 32 -52 36 -123 2 -50 6 -74 12 -65 5 8 9 25 9 37 0 15 7 26 20
29 22 6 25 28 11 66 -8 19 -5 27 15 42 30 22 31 34 2 33 -56 -3 -89 3 -95 17
-9 25 5 30 41 13 59 -28 227 8 241 52 6 20 -32 83 -45 75 -4 -3 -7 3 -6 13 0
9 -5 16 -12 14 -8 -1 -11 2 -7 7 3 6 -3 28 -15 50 -20 41 -26 76 -12 84 4 3 8
-8 8 -25 1 -17 5 -33 10 -37 5 -3 10 -12 12 -20 1 -7 21 -40 43 -73 38 -55 42
-58 55 -41 12 14 12 12 -1 -14 -18 -38 -21 -66 -4 -43 9 12 10 12 5 -4 -4 -11
1 -30 11 -45 9 -14 17 -46 18 -71 1 -25 5 -58 10 -74 6 -20 5 -27 -3 -22 -14
9 -32 71 -32 114 0 18 -7 44 -16 57 l-16 24 -51 -21 c-29 -11 -61 -23 -72 -26
-29 -8 -56 -45 -42 -55 7 -5 1 -5 -12 -1 l-24 6 22 -28 c95 -123 104 -167 40
-214 -23 -16 -50 -32 -60 -35 -26 -9 -26 -61 0 -68 24 -6 72 15 110 49 24 21
29 32 24 52 l-6 25 74 -6 c41 -3 92 -9 114 -13 l40 -7 -32 36 c-17 19 -34 49
-38 66 -11 50 13 70 33 27 6 -13 25 -40 42 -60 28 -32 38 -36 80 -36 36 0 56
7 86 28 50 37 68 58 58 73 -4 7 -3 9 4 5 6 -3 15 2 21 12 8 16 6 17 -22 14
-18 -2 -52 4 -77 13 -25 9 -52 17 -60 19 -8 2 -15 7 -15 12 0 5 -4 15 -8 22
-17 26 4 32 43 12 49 -25 103 -25 157 -1 39 18 42 23 53 78 6 32 14 68 17 81
4 17 2 21 -11 16 -9 -3 -14 -9 -12 -13 5 -7 -3 -9 -77 -12 -26 -1 -50 0 -53 4
-12 12 8 27 37 27 57 0 119 47 119 91 0 16 -5 51 -11 79 l-11 51 -31 -31 c-33
-33 -67 -46 -92 -36 -22 8 -18 24 8 31 35 11 76 56 83 90 3 18 -2 57 -11 89
-9 32 -15 74 -13 94 l3 37 -123 0 c-122 0 -124 0 -147 -27 -22 -25 -42 -109
-31 -127 3 -5 -3 -7 -14 -4 -17 4 -20 14 -20 54 0 28 7 65 14 84 l15 35 -49 0
c-42 0 -52 -4 -74 -30z m404 -40 c0 -11 -2 -20 -4 -20 -2 0 -6 9 -9 20 -3 11
-1 20 4 20 5 0 9 -9 9 -20z m-323 -52 c-2 -13 -4 -3 -4 22 0 25 2 35 4 23 2
-13 2 -33 0 -45z m-217 39 c0 -2 -10 -12 -22 -23 l-23 -19 19 23 c18 21 26 27
26 19z m362 -76 c-11 -39 -17 -71 -13 -71 3 0 19 18 35 40 16 22 45 54 65 72
l36 33 -35 -40 c-20 -22 -44 -50 -53 -61 l-18 -22 67 19 c61 17 87 18 72 4 -2
-3 -38 -14 -79 -24 -67 -17 -77 -23 -111 -66 -39 -48 -47 -67 -25 -61 6 3 44
7 82 11 50 4 67 3 59 -5 -6 -6 -45 -13 -87 -15 -43 -2 -82 -7 -89 -11 -14 -9
-5 6 39 68 19 26 31 52 28 58 -7 12 11 103 27 133 19 36 19 8 0 -62z m-173
-13 c1 -64 23 -147 47 -183 8 -11 14 -23 14 -28 0 -14 -26 17 -49 59 -14 24
-19 30 -15 14 4 -14 3 -22 -1 -18 -12 12 -19 218 -7 218 5 0 10 -28 11 -62z
m206 33 c3 -5 2 -12 -3 -15 -5 -3 -9 1 -9 9 0 17 3 19 12 6z m182 -73 c-3 -8
-6 -5 -6 6 -1 11 2 17 5 13 3 -3 4 -12 1 -19z m40 -140 c-3 -7 -5 -2 -5 12 0
14 2 19 5 13 2 -7 2 -19 0 -25z m-80 -24 c-3 -3 -12 -4 -19 -1 -8 3 -5 6 6 6
11 1 17 -2 13 -5z m-737 -49 c0 -5 -5 -3 -10 5 -5 8 -10 20 -10 25 0 6 5 3 10
-5 5 -8 10 -19 10 -25z m137 19 c-3 -3 -12 -4 -19 -1 -8 3 -5 6 6 6 11 1 17
-2 13 -5z m-87 -24 c0 -5 -4 -10 -10 -10 -5 0 -10 5 -10 10 0 6 5 10 10 10 6
0 10 -4 10 -10z m550 -81 c-66 -11 -210 -11 -210 1 0 6 48 10 128 9 97 -1 116
-3 82 -10z m217 -61 c-3 -8 -6 -5 -6 6 -1 11 2 17 5 13 3 -3 4 -12 1 -19z
m-542 -85 c-4 -10 -16 -42 -28 -71 -18 -48 -22 -52 -36 -38 -13 14 -13 20 9
58 12 24 27 49 33 56 14 18 30 15 22 -5z m10 -59 c-24 -37 -27 -24 -7 27 14
36 18 40 20 21 2 -13 -4 -35 -13 -48z m143 36 c10 -12 27 -22 40 -23 12 -1 22
-5 22 -10 0 -5 8 -6 17 -3 10 4 14 4 10 0 -4 -4 -2 -13 4 -21 14 -16 5 -17
-22 -3 -29 16 -23 7 13 -20 17 -13 45 -27 62 -31 l31 -7 -29 -1 c-33 -1 -91
32 -124 71 -13 15 -28 27 -34 25 -6 -1 -12 8 -14 21 -5 27 3 28 24 2z m-10
-195 c-3 -3 -9 2 -12 12 -6 14 -5 15 5 6 7 -7 10 -15 7 -18z m36 -23 c3 -5 -1
-9 -9 -9 -8 0 -15 4 -15 9 0 4 4 8 9 8 6 0 12 -4 15 -8z"/>
<path d="M1192 2454 c-29 -20 -52 -66 -51 -101 0 -26 1 -25 15 11 8 22 26 54
40 73 28 37 28 40 -4 17z"/>
<path d="M1259 2416 c18 -21 6 -34 -19 -19 -15 10 -19 9 -24 -4 -8 -21 11 -43
31 -36 10 4 14 2 10 -4 -4 -6 -1 -13 7 -16 9 -4 19 5 26 23 13 32 9 45 -23 62
-20 10 -21 10 -8 -6z"/>
<path d="M3508 2283 c6 -2 18 -2 25 0 6 3 1 5 -13 5 -14 0 -19 -2 -12 -5z"/>
<path d="M3568 2273 c6 -2 18 -2 25 0 6 3 1 5 -13 5 -14 0 -19 -2 -12 -5z"/>
<path d="M1071 2244 c-12 -15 -21 -34 -21 -43 1 -13 3 -12 12 4 6 11 20 30 31
43 11 12 16 22 9 22 -6 0 -20 -12 -31 -26z"/>
<path d="M1160 2226 c0 -19 -26 -21 -33 -3 -3 8 -7 5 -13 -7 -5 -13 -3 -21 4
-24 7 -2 19 -10 27 -18 12 -13 15 -12 25 5 13 25 13 48 0 56 -5 3 -10 -1 -10
-9z"/>
<path d="M1778 2082 c14 -21 20 -23 60 -17 86 13 87 21 4 31 l-79 9 15 -23z"/>
<path d="M5166 2021 c33 -20 49 -51 63 -121 l9 -45 1 38 c1 21 -5 52 -13 71
-14 33 -59 76 -80 76 -6 0 3 -9 20 -19z"/>
<path d="M4208 1994 c-3 -2 -166 -7 -363 -9 -197 -3 -361 -8 -364 -10 -2 -3
14 -25 38 -49 41 -42 42 -44 19 -49 -22 -5 -96 -4 -637 7 -227 5 -234 6 -258
28 -14 13 -29 33 -34 45 -8 21 -15 22 -141 25 -97 2 -144 -1 -173 -11 -28 -10
-101 -16 -245 -18 -164 -3 -212 -8 -240 -21 -31 -14 -87 -16 -454 -17 l-419
-1 -15 -22 c-8 -13 -15 -51 -16 -94 l-3 -73 -229 0 -229 0 -5 39 -5 38 -64
-51 -64 -51 39 -1 39 -1 -37 -10 -38 -10 0 -59 c0 -32 4 -59 10 -59 5 0 25
-11 44 -23 l34 -24 -35 -28 c-40 -32 -63 -79 -72 -150 -6 -48 -7 -50 -41 -55
l-35 -6 35 -6 c19 -4 62 -12 95 -18 63 -12 356 -9 388 5 9 4 17 16 17 26 0 17
8 19 68 18 l67 -1 -53 -10 c-29 -5 -50 -13 -47 -18 22 -35 430 -49 555 -18 89
22 164 8 132 -24 -50 -50 -1012 -63 -1253 -18 -28 5 -59 16 -71 24 -19 14 -18
15 23 24 24 5 35 10 24 11 -11 0 -37 -4 -57 -10 -37 -10 -38 -11 -38 -58 l0
-49 43 -10 c50 -13 199 -28 355 -38 l112 -6 0 -132 c0 -132 -42 -577 -61 -651
-17 -62 -61 -137 -94 -157 -47 -28 -108 -24 -147 11 -28 25 -33 36 -33 75 0
53 23 82 72 92 27 5 37 1 64 -25 37 -37 52 -33 22 7 -64 86 -199 15 -178 -95
3 -19 19 -48 35 -66 26 -30 33 -32 94 -32 60 0 67 2 100 34 44 43 71 99 89
187 7 38 18 69 23 69 5 0 10 -60 12 -132 l3 -133 94 0 95 0 0 -35 c0 -19 5
-35 10 -35 6 0 10 29 10 68 1 39 7 77 15 92 8 14 14 52 15 87 l0 62 48 6 c26
4 65 11 87 15 22 5 40 8 42 7 1 -1 9 -35 17 -75 30 -144 95 -222 185 -222 85
0 131 46 131 130 0 88 -103 138 -164 81 -26 -24 -34 -51 -17 -51 5 0 13 9 16
21 9 26 47 43 79 35 70 -17 91 -113 37 -167 -25 -24 -38 -29 -79 -29 -40 0
-57 6 -82 26 -58 50 -93 150 -106 311 l-7 83 2062 0 2061 0 0 -140 c0 -77 0
-142 0 -145 -1 -19 63 -125 75 -125 9 0 20 -11 24 -24 12 -29 29 -36 110 -43
l64 -6 -33 37 c-19 21 -44 62 -56 92 -13 29 -33 69 -45 86 -12 18 20 -10 72
-62 107 -109 174 -149 222 -131 26 10 27 13 27 88 0 86 -4 97 -38 107 -12 4
-48 29 -78 56 -43 37 -69 52 -109 60 -29 6 -61 18 -71 26 -18 15 -18 15 1 9
11 -3 33 -9 49 -12 l29 -6 -28 47 c-34 57 -26 73 9 18 13 -21 46 -55 73 -75
26 -19 59 -47 73 -62 14 -15 38 -33 53 -41 l28 -15 -6 38 c-28 162 -44 195
-117 236 -21 11 -38 24 -38 29 0 8 13 2 83 -39 28 -16 29 -13 16 28 -16 48
-46 68 -99 69 -25 0 -52 5 -60 11 -11 7 6 9 60 7 l75 -3 -10 52 c-9 51 -11 54
-55 70 -25 9 -57 28 -72 42 -31 27 -38 57 -12 47 9 -3 20 -6 25 -6 6 0 32 -20
58 -45 l48 -45 6 47 c3 27 9 62 12 79 6 25 3 32 -17 41 -14 6 -57 10 -96 10
-73 -2 -94 7 -45 19 l28 7 -35 13 -35 12 41 1 c28 1 58 -9 95 -29 30 -16 59
-30 65 -30 9 0 34 61 34 82 0 3 -21 3 -48 0 -39 -3 -58 1 -108 27 -34 17 -67
31 -73 31 -6 0 -11 5 -11 11 0 18 70 3 95 -21 26 -24 74 -37 122 -32 25 3 34
10 42 34 14 40 15 38 -18 38 -16 0 -43 3 -60 6 l-31 7 0 72 c0 106 10 166 29
172 67 20 118 74 135 143 4 16 0 12 -10 -10 -44 -97 -137 -119 -231 -54 -59
41 -96 43 -101 6 -2 -13 5 -33 15 -44 12 -13 18 -35 18 -67 -1 -73 -21 -101
-97 -139 l-68 -33 0 -274 0 -274 -2065 0 -2065 0 -5 22 c-8 41 -13 147 -6 151
4 3 34 -6 66 -20 33 -13 66 -22 73 -19 7 3 10 0 7 -5 -7 -11 39 -25 54 -15 6
3 11 2 11 -2 0 -5 19 -8 43 -6 l42 2 -35 -9 c-58 -15 95 0 175 16 38 8 72 19
75 25 24 38 405 35 433 -4 7 -9 10 -9 14 0 3 10 8 9 20 -2 11 -12 42 -15 144
-15 72 0 129 4 129 9 0 5 15 12 33 16 17 4 67 17 109 31 142 43 286 41 423 -7
32 -11 80 -21 108 -21 37 -1 44 -4 28 -9 -28 -11 -27 -14 7 -16 51 -3 277 10
262 15 -30 10 136 42 221 42 87 0 161 -16 228 -48 46 -23 201 -22 300 2 55 12
106 16 197 14 68 -2 115 -6 106 -9 -37 -13 125 -34 238 -30 191 5 271 5 365
-3 50 -4 108 -4 130 1 l40 9 -4 227 -3 227 29 0 c17 0 38 9 48 20 19 21 37 18
28 -5 -9 -25 14 -16 33 13 23 33 29 84 14 112 -11 21 -12 21 -31 4 -11 -10
-29 -33 -40 -51 -24 -39 -82 -67 -119 -58 -88 22 -145 75 -80 75 17 0 30 5 30
10 0 6 9 10 19 10 11 0 23 5 26 10 3 6 14 10 24 10 14 0 17 6 13 25 -3 18 0
25 12 25 9 0 16 5 16 10 0 16 -48 12 -83 -7 -43 -22 -106 -22 -139 1 -35 23
-68 104 -47 117 8 5 21 8 29 8 10 0 8 -3 -5 -8 -17 -7 -15 -9 12 -13 18 -2 30
-1 28 3 -3 4 9 6 26 5 43 -2 48 20 7 29 -61 13 -103 35 -114 59 -12 26 -7 123
7 132 5 3 9 1 9 -5 0 -17 53 -61 73 -61 29 0 57 19 51 35 -3 7 -19 17 -35 20
-16 4 -43 18 -59 32 -29 24 -30 28 -29 102 1 103 -2 109 -64 115 -72 7 -534
16 -539 10z m-840 -131 c-10 -2 -26 -2 -35 0 -10 3 -2 5 17 5 19 0 27 -2 18
-5z m135 -10 c-7 -2 -19 -2 -25 0 -7 3 -2 5 12 5 14 0 19 -2 13 -5z m-2603
-168 c0 -20 -158 -21 -215 0 -39 14 -36 14 88 15 106 0 127 -2 127 -15z m-240
-25 c0 -6 -55 -10 -145 -10 -90 0 -145 4 -145 10 0 6 55 10 145 10 90 0 145
-4 145 -10z m257 -97 c-3 -62 -2 -95 3 -78 5 21 8 -1 9 -73 1 -72 -2 -101 -10
-96 -6 3 -9 15 -6 25 4 16 0 19 -29 19 l-34 0 0 100 0 100 30 0 c30 0 30 1 30
55 0 30 3 55 6 55 4 0 4 -48 1 -107z m232 -86 c12 -21 17 -36 11 -32 -5 3 -10
2 -10 -3 0 -6 17 -14 38 -19 l37 -9 1 -68 c2 -63 0 -68 -23 -77 -28 -10 -145
-12 -192 -3 l-31 7 0 73 c0 66 2 74 19 74 32 0 51 11 51 29 0 9 14 25 30 34
17 10 30 26 30 35 0 21 12 8 39 -41z m31 -6 c0 -7 -8 -3 -19 10 -11 13 -17 28
-14 32 6 10 32 -23 33 -42z m-623 9 c21 0 85 -63 99 -97 8 -18 14 -46 14 -63
0 -27 -3 -30 -30 -30 -19 0 -30 -5 -30 -14 0 -20 -23 -26 -95 -26 -72 0 -95 6
-95 26 0 9 -11 14 -30 14 -28 0 -30 3 -30 35 0 38 28 103 54 124 24 20 89 41
111 36 11 -3 25 -5 32 -5z m3510 -37 c-3 -10 -5 -2 -5 17 0 19 2 27 5 18 2
-10 2 -26 0 -35z m-50 -5 c-3 -8 -6 -5 -6 6 -1 11 2 17 5 13 3 -3 4 -12 1 -19z
m650 -25 c-3 -10 -5 -4 -5 12 0 17 2 24 5 18 2 -7 2 -21 0 -30z m-2480 -85
c-2 -18 -4 -6 -4 27 0 33 2 48 4 33 2 -15 2 -42 0 -60z m3255 62 c16 0 18 -11
18 -125 0 -113 -2 -125 -18 -125 -14 0 -20 14 -30 65 -16 87 -16 213 0 197 7
-7 20 -12 30 -12z m-2305 -12 c-3 -8 -6 -5 -6 6 -1 11 2 17 5 13 3 -3 4 -12 1
-19z m940 -35 c-3 -10 -5 -2 -5 17 0 19 2 27 5 18 2 -10 2 -26 0 -35z m-880 5
c-3 -8 -6 -5 -6 6 -1 11 2 17 5 13 3 -3 4 -12 1 -19z m-1894 -45 c-13 -2 -33
-2 -45 0 -13 2 -3 4 22 4 25 0 35 -2 23 -4z m1544 -60 c-2 -16 -4 -5 -4 22 0
28 2 40 4 28 2 -13 2 -35 0 -50z m300 25 c-3 -7 -5 -2 -5 12 0 14 2 19 5 13 2
-7 2 -19 0 -25z m1838 -48 c-3 -5 -12 -10 -18 -10 -7 0 -6 4 3 10 19 12 23 12
15 0z m-2128 -87 c-2 -16 -4 -5 -4 22 0 28 2 40 4 28 2 -13 2 -35 0 -50z
m2190 -190 c-1 -49 -3 -9 -3 87 0 96 2 136 3 88 2 -49 2 -127 0 -175z m-1380
110 c-2 -21 -4 -6 -4 32 0 39 2 55 4 38 2 -18 2 -50 0 -70z m340 5 c-2 -18 -4
-6 -4 27 0 33 2 48 4 33 2 -15 2 -42 0 -60z m-2534 65 c-7 -2 -19 -2 -25 0 -7
3 -2 5 12 5 14 0 19 -2 13 -5z m-540 -120 c3 -54 2 -102 -2 -106 -4 -4 -24
-10 -44 -14 l-37 -6 0 112 0 111 39 0 38 0 6 -97z m305 90 c-10 -2 -28 -2 -40
0 -13 2 -5 4 17 4 22 1 32 -1 23 -4z m1979 -50 c-3 -10 -5 -2 -5 17 0 19 2 27
5 18 2 -10 2 -26 0 -35z m-350 -15 c-3 -7 -5 -2 -5 12 0 14 2 19 5 13 2 -7 2
-19 0 -25z m1990 0 c-3 -8 -6 -5 -6 6 -1 11 2 17 5 13 3 -3 4 -12 1 -19z
m-100 -135 c-2 -27 -3 -5 -3 47 0 52 1 74 3 48 2 -27 2 -69 0 -95z m-3750 85
c-3 -7 -5 -2 -5 12 0 14 2 19 5 13 2 -7 2 -19 0 -25z m940 -30 c-3 -7 -5 -2
-5 12 0 14 2 19 5 13 2 -7 2 -19 0 -25z m2920 0 c-3 -8 -6 -5 -6 6 -1 11 2 17
5 13 3 -3 4 -12 1 -19z m-3905 -40 c-10 -10 -10 -8 -2 37 1 6 4 2 7 -9 3 -10
0 -23 -5 -28z m2765 10 c-3 -8 -6 -5 -6 6 -1 11 2 17 5 13 3 -3 4 -12 1 -19z
m-2710 -35 c-3 -10 -5 -4 -5 12 0 17 2 24 5 18 2 -7 2 -21 0 -30z m-77 -33 c0
-11 7 -20 15 -20 8 0 15 7 15 16 0 8 -4 12 -10 9 -5 -3 -10 -1 -10 4 0 6 6 11
13 11 14 0 34 -90 39 -180 l3 -45 -77 -3 -78 -3 0 110 0 110 33 4 c17 2 38 5
45 5 6 1 12 -7 12 -18z m3487 -32 c-3 -7 -5 -2 -5 12 0 14 2 19 5 13 2 -7 2
-19 0 -25z m624 -51 c-6 -6 -48 -11 -93 -13 -80 -2 -75 -1 40 12 50 5 52 7 53
37 l2 32 4 -29 c3 -16 0 -33 -6 -39z m-828 36 c-13 -2 -33 -2 -45 0 -13 2 -3
4 22 4 25 0 35 -2 23 -4z m204 -35 c-3 -7 -5 -2 -5 12 0 14 2 19 5 13 2 -7 2
-19 0 -25z m-450 16 c-3 -3 -12 -4 -19 -1 -8 3 -5 6 6 6 11 1 17 -2 13 -5z
m890 -16 c-3 -8 -6 -5 -6 6 -1 11 2 17 5 13 3 -3 4 -12 1 -19z m-2720 5 c-20
-2 -52 -2 -70 0 -17 2 0 4 38 4 39 0 53 -2 32 -4z m1771 0 c-10 -2 -26 -2 -35
0 -10 3 -2 5 17 5 19 0 27 -2 18 -5z m449 1 c-3 -3 -12 -4 -19 -1 -8 3 -5 6 6
6 11 1 17 -2 13 -5z m426 -1 c-7 -2 -21 -2 -30 0 -10 3 -4 5 12 5 17 0 24 -2
18 -5z m-955 -10 c-16 -2 -40 -2 -55 0 -16 2 -3 4 27 4 30 0 43 -2 28 -4z
m800 0 c-10 -2 -28 -2 -40 0 -13 2 -5 4 17 4 22 1 32 -1 23 -4z m-3275 -10
c-7 -2 -19 -2 -25 0 -7 3 -2 5 12 5 14 0 19 -2 13 -5z m3174 0 c-20 -2 -52 -2
-70 0 -17 2 0 4 38 4 39 0 53 -2 32 -4z m-3927 -248 c0 -43 -4 -75 -10 -75 -5
0 -10 13 -10 29 0 36 12 121 16 121 2 0 4 -34 4 -75z m412 15 c4 -92 9 -84
-62 -97 -115 -21 -110 -24 -110 62 l0 75 85 0 85 0 2 -40z"/>
<path d="M4935 1989 c-15 -7 -12 -8 13 -3 61 11 89 -3 114 -56 13 -27 27 -49
31 -50 4 0 3 9 -3 19 -5 11 -10 29 -10 40 0 46 -88 77 -145 50z"/>
<path d="M4912 1906 c10 -7 14 -16 10 -20 -4 -4 0 -6 8 -4 9 2 14 -3 12 -12
-3 -12 -1 -12 9 -3 10 10 7 16 -12 32 -13 11 -28 20 -34 20 -5 0 -2 -6 7 -13z"/>
<path d="M4970 1861 c0 -20 5 -26 20 -26 8 -1 14 -6 12 -13 -2 -13 75 -87 91
-87 6 0 11 -8 13 -17 1 -10 19 -34 39 -55 21 -21 34 -32 30 -24 -5 9 -4 12 3
7 6 -4 9 -13 6 -20 -3 -8 3 -16 15 -19 19 -5 19 -3 8 18 -23 45 -160 187 -167
175 -5 -9 -9 -9 -14 -1 -4 6 -5 11 -1 11 3 0 1 9 -5 21 -7 12 -18 18 -26 15
-8 -3 -12 -2 -9 3 3 5 1 12 -5 16 -5 3 -10 1 -10 -4z m100 -96 c13 -14 21 -25
18 -25 -2 0 -15 11 -28 25 -13 14 -21 25 -18 25 2 0 15 -11 28 -25z m65 -65
c10 -11 16 -20 13 -20 -3 0 -13 9 -23 20 -10 11 -16 20 -13 20 3 0 13 -9 23
-20z"/>
<path d="M5634 1648 c3 -13 6 -38 6 -55 0 -30 3 -33 33 -33 l32 0 -3 55 -4 55
-35 0 c-32 0 -35 -2 -29 -22z"/>
<path d="M5210 1582 c0 -5 10 -17 22 -28 l21 -19 -18 28 c-18 28 -25 33 -25
19z"/>
<path d="M2512 802 c-34 -22 210 -50 324 -37 l69 8 -120 18 c-127 19 -252 24
-273 11z"/>
<path d="M3174 533 c4 -8 -8 -22 -32 -37 -22 -14 -57 -47 -78 -74 -63 -79
-117 -109 -145 -79 -12 12 -21 9 -67 -27 -55 -42 -66 -63 -60 -112 3 -25 8
-29 40 -32 21 -2 74 7 119 19 92 25 141 60 159 113 6 19 31 52 57 75 45 41 45
43 39 89 -3 26 -14 53 -23 62 -8 8 -13 10 -9 3z"/>
<path d="M2720 457 c-25 -12 -71 -44 -103 -70 -67 -55 -117 -65 -144 -30 -10
13 -15 14 -28 3 -8 -7 -12 -16 -10 -21 3 -4 -3 -13 -14 -18 -30 -16 -40 -12
-11 4 14 8 19 14 11 15 -33 0 -81 -42 -91 -81 -18 -66 -6 -73 117 -65 57 3
118 12 136 20 18 7 52 37 76 65 24 29 61 61 82 72 38 19 39 21 39 74 0 30 -3
55 -7 55 -5 0 -28 -11 -53 -23z"/>
<path d="M5390 155 c0 -2 14 -20 31 -40 25 -28 38 -35 68 -35 l36 0 -63 40
c-62 40 -72 44 -72 35z"/>
</g>
</svg>
