<?xml version="1.0" standalone="no"?>
<!DOCTYPE svg PUBLIC "-//W3C//DTD SVG 20010904//EN"
 "http://www.w3.org/TR/2001/REC-SVG-20010904/DTD/svg10.dtd">
<svg version="1.0" xmlns="http://www.w3.org/2000/svg"
 width="626.000000pt" height="626.000000pt" viewBox="0 0 626.000000 626.000000"
 preserveAspectRatio="xMidYMid meet">

<g transform="translate(0.000000,626.000000) scale(0.100000,-0.100000)"
fill="#000000" stroke="none">
<path d="M4520 5238 c-106 -129 -448 -494 -456 -486 -1 2 12 44 29 93 29 81
32 103 34 222 1 88 7 147 17 178 9 25 16 49 16 53 0 5 -20 18 -44 29 -34 17
-47 19 -54 10 -5 -7 -55 -91 -109 -187 -55 -96 -125 -215 -156 -263 l-55 -88
-12 56 c-9 45 -21 66 -55 102 -37 38 -44 53 -47 91 -3 46 -3 46 -50 58 l-48
12 -19 -67 c-11 -36 -35 -121 -55 -188 -37 -131 -44 -145 -236 -478 -70 -121
-165 -290 -210 -375 -101 -190 -154 -273 -329 -510 -166 -226 -386 -554 -505
-754 -138 -232 -222 -390 -602 -1150 -254 -506 -352 -712 -345 -719 7 -7 14
-7 20 -1 5 5 171 333 370 729 198 396 392 778 431 849 175 320 408 681 661
1026 174 236 227 318 333 517 47 89 139 253 204 365 65 112 139 242 166 291
37 68 54 90 79 101 47 19 93 77 113 141 10 30 21 55 25 55 21 0 62 -74 67
-119 8 -90 -14 -129 -290 -523 -185 -265 -256 -374 -249 -381 7 -7 14 -7 20
-1 42 46 495 700 621 898 108 169 117 181 150 187 49 8 73 22 115 71 l38 43
-6 -85 c-7 -107 -43 -222 -102 -324 -37 -65 -85 -120 -268 -305 -203 -206
-377 -396 -466 -509 -26 -34 -31 -46 -22 -55 10 -9 20 -3 44 28 113 142 296
336 696 740 380 383 460 460 481 458 44 -4 95 16 140 54 l43 37 -7 -39 c-24
-132 -104 -282 -222 -417 -93 -107 -164 -168 -291 -248 -151 -96 -296 -215
-436 -360 -109 -112 -287 -331 -287 -352 0 -5 8 -8 18 -8 9 0 34 24 55 55 107
154 334 390 497 517 121 94 212 147 478 282 226 114 234 117 268 106 48 -16
112 -5 181 31 31 16 58 28 60 25 2 -2 -8 -28 -23 -58 -34 -68 -204 -239 -342
-342 -56 -42 -167 -119 -247 -172 -162 -105 -238 -166 -368 -293 -197 -191
-320 -389 -342 -547 -13 -102 31 -184 100 -184 49 0 75 15 258 147 260 186
401 260 516 270 l56 4 -30 -23 c-107 -82 -145 -138 -145 -211 0 -77 60 -125
143 -114 39 5 41 5 22 -9 -11 -9 -58 -38 -105 -66 -248 -150 -364 -236 -564
-420 -137 -125 -247 -207 -481 -359 -417 -270 -545 -388 -653 -604 -63 -127
-296 -795 -304 -873 -4 -35 22 -37 33 -2 87 296 245 743 304 860 105 210 229
324 654 599 234 151 359 247 517 394 138 128 229 197 403 305 227 140 293 185
347 232 28 25 77 64 108 88 l57 44 -22 34 -21 34 50 63 c142 178 193 342 143
452 -10 23 -39 59 -64 81 l-46 40 50 199 c28 109 48 203 46 209 -3 7 -28 18
-56 25 -28 7 -51 15 -51 18 0 4 11 21 25 39 33 43 75 133 75 160 0 12 10 28
21 36 l21 14 -26 52 c-24 46 -29 51 -46 42 -11 -6 -90 -51 -175 -100 -85 -49
-218 -121 -296 -161 l-142 -71 62 69 c141 154 230 325 255 491 8 48 23 107 35
132 l21 45 -37 33 c-20 17 -39 32 -42 32 -3 0 -62 -69 -131 -152z m149 -956
l-23 -90 -43 -6 c-98 -13 -168 -78 -200 -185 -27 -88 -21 -282 13 -392 3 -12
-4 -19 -23 -24 -80 -20 -235 -113 -453 -273 -137 -100 -184 -126 -216 -118
-63 16 -71 144 -17 273 93 221 339 479 656 687 78 51 182 123 231 159 50 37
92 65 94 63 2 -3 -7 -45 -19 -94z"/>
<path d="M3090 3873 c-27 -10 -60 -46 -60 -65 0 -25 19 -22 41 6 11 14 29 26
42 28 12 2 22 10 22 18 0 16 -21 22 -45 13z"/>
<path d="M3224 3760 c-37 -15 -72 -80 -43 -80 6 0 20 11 30 24 11 14 29 26 42
28 27 4 37 38 10 37 -10 0 -28 -4 -39 -9z"/>
<path d="M3411 3604 c-32 -26 -42 -64 -18 -64 8 0 19 11 25 24 6 15 23 27 41
31 17 4 31 13 31 21 0 23 -46 16 -79 -12z"/>
</g>
</svg>
