<?xml version="1.0" standalone="no"?>
<!DOCTYPE svg PUBLIC "-//W3C//DTD SVG 20010904//EN"
 "http://www.w3.org/TR/2001/REC-SVG-20010904/DTD/svg10.dtd">
<svg version="1.0" xmlns="http://www.w3.org/2000/svg"
 width="626.000000pt" height="626.000000pt" viewBox="0 0 626.000000 626.000000"
 preserveAspectRatio="xMidYMid meet">

<g transform="translate(0.000000,626.000000) scale(0.100000,-0.100000)"
fill="#000000" stroke="none">
<path d="M2703 5493 c20 -2 54 -2 75 0 20 2 3 4 -38 4 -41 0 -58 -2 -37 -4z"/>
<path d="M2595 5480 c-25 -11 1 -11 35 0 20 6 21 8 5 8 -11 0 -29 -3 -40 -8z"/>
<path d="M2838 5483 c7 -3 16 -2 19 1 4 3 -2 6 -13 5 -11 0 -14 -3 -6 -6z"/>
<path d="M2901 5466 c95 -37 252 -137 228 -145 -7 -2 3 -11 21 -20 19 -9 61
-49 94 -89 48 -59 57 -75 45 -83 -14 -8 -12 -10 14 -13 6 0 33 -57 59 -126 97
-260 185 -614 210 -847 7 -62 16 -113 20 -113 5 0 6 10 4 23 -3 12 -8 54 -11
92 -21 227 -154 735 -249 948 -69 155 -300 355 -441 382 -27 5 -27 4 6 -9z"/>
<path d="M2545 5460 c-3 -6 1 -7 9 -4 18 7 21 14 7 14 -6 0 -13 -4 -16 -10z"/>
<path d="M2833 5343 c31 -2 83 -2 115 0 31 2 5 3 -58 3 -63 0 -89 -1 -57 -3z"/>
<path d="M2703 5333 c9 -2 23 -2 30 0 6 3 -1 5 -18 5 -16 0 -22 -2 -12 -5z"/>
<path d="M3028 5333 c6 -2 18 -2 25 0 6 3 1 5 -13 5 -14 0 -19 -2 -12 -5z"/>
<path d="M2638 5323 c6 -2 18 -2 25 0 6 3 1 5 -13 5 -14 0 -19 -2 -12 -5z"/>
<path d="M3088 5323 c7 -3 16 -2 19 1 4 3 -2 6 -13 5 -11 0 -14 -3 -6 -6z"/>
<path d="M2588 5313 c7 -3 16 -2 19 1 4 3 -2 6 -13 5 -11 0 -14 -3 -6 -6z"/>
<path d="M2538 5303 c6 -2 18 -2 25 0 6 3 1 5 -13 5 -14 0 -19 -2 -12 -5z"/>
<path d="M2475 5290 c-13 -5 -14 -9 -5 -9 8 0 24 4 35 9 13 5 14 9 5 9 -8 0
-24 -4 -35 -9z"/>
<path d="M2390 5265 c-19 -7 -28 -13 -20 -13 8 0 31 6 50 13 19 7 28 13 20 13
-8 0 -31 -6 -50 -13z"/>
<path d="M3158 5113 c12 -2 32 -2 45 0 12 2 2 4 -23 4 -25 0 -35 -2 -22 -4z"/>
<path d="M3088 5103 c6 -2 18 -2 25 0 6 3 1 5 -13 5 -14 0 -19 -2 -12 -5z"/>
<path d="M3015 5090 c-25 -11 1 -11 35 0 20 6 21 8 5 8 -11 0 -29 -3 -40 -8z"/>
<path d="M2922 5063 c-24 -8 -41 -17 -39 -19 2 -2 28 5 58 15 30 11 47 20 39
19 -8 0 -34 -6 -58 -15z"/>
<path d="M2840 5030 c-8 -5 -10 -10 -5 -10 6 0 17 5 25 10 8 5 11 10 5 10 -5
0 -17 -5 -25 -10z"/>
<path d="M2758 4994 c-27 -13 -48 -27 -48 -29 0 -5 99 42 109 51 13 11 -20 0
-61 -22z"/>
<path d="M2629 4919 c-35 -23 -90 -62 -122 -87 -47 -37 -55 -47 -42 -54 8 -5
26 -7 38 -5 18 4 18 4 -5 6 -16 0 -28 4 -28 7 0 10 40 41 135 105 96 65 101
69 93 69 -3 0 -34 -19 -69 -41z"/>
<path d="M2383 4783 c9 -2 25 -2 35 0 9 3 1 5 -18 5 -19 0 -27 -2 -17 -5z"/>
<path d="M2575 4759 c51 -10 92 -10 50 1 -16 4 -43 8 -60 8 -25 0 -24 -2 10
-9z"/>
<path d="M2668 4743 c6 -2 18 -2 25 0 6 3 1 5 -13 5 -14 0 -19 -2 -12 -5z"/>
<path d="M2718 4733 c6 -2 18 -2 25 0 6 3 1 5 -13 5 -14 0 -19 -2 -12 -5z"/>
<path d="M2768 4723 c7 -3 16 -2 19 1 4 3 -2 6 -13 5 -11 0 -14 -3 -6 -6z"/>
<path d="M2808 4713 c7 -3 16 -2 19 1 4 3 -2 6 -13 5 -11 0 -14 -3 -6 -6z"/>
<path d="M2995 4647 c39 -19 79 -42 90 -51 19 -16 19 -16 -10 -11 -28 5 -28 4
5 -9 67 -26 136 -64 191 -106 51 -39 52 -39 14 -5 -22 20 -60 49 -85 63 -25
15 -65 41 -89 60 -48 36 -121 75 -161 86 -14 4 7 -9 45 -27z"/>
<path d="M2898 4603 c17 -2 47 -2 65 0 17 2 3 4 -33 4 -36 0 -50 -2 -32 -4z"/>
<path d="M2795 4590 c-25 -11 1 -11 35 0 20 6 21 8 5 8 -11 0 -29 -3 -40 -8z"/>
<path d="M3018 4593 c7 -3 16 -2 19 1 4 3 -2 6 -13 5 -11 0 -14 -3 -6 -6z"/>
<path d="M2740 4570 c-8 -5 -10 -10 -5 -10 6 0 17 5 25 10 8 5 11 10 5 10 -5
0 -17 -5 -25 -10z"/>
<path d="M2624 4509 c-75 -49 -234 -198 -234 -220 0 -6 22 16 49 48 56 66 133
131 223 186 34 20 57 37 51 37 -6 0 -46 -23 -89 -51z"/>
<path d="M2990 4510 c0 -7 16 -46 36 -87 56 -113 148 -198 267 -248 20 -8 37
-12 37 -7 0 5 -24 18 -52 30 -111 47 -214 152 -254 259 -19 52 -34 76 -34 53z"/>
<path d="M2940 4432 c0 -126 38 -234 115 -327 39 -47 29 -20 -14 42 -57 79
-85 168 -85 275 -1 49 -4 88 -8 88 -5 0 -8 -35 -8 -78z"/>
<path d="M2470 4198 c-12 -29 -27 -83 -33 -120 -9 -60 -8 -75 14 -147 13 -45
27 -81 30 -81 7 0 23 389 16 396 -2 3 -14 -19 -27 -48z"/>
<path d="M3474 4110 c3 -80 6 -172 6 -205 0 -71 9 -64 39 34 18 58 22 85 16
128 -9 72 -30 143 -50 168 -15 18 -16 9 -11 -125z"/>
<path d="M3263 4099 c-29 -15 -37 -39 -19 -57 18 -18 157 -23 163 -6 2 7 -6
24 -19 39 -26 30 -89 42 -125 24z"/>
<path d="M2619 4067 c-22 -17 -41 -55 -34 -67 8 -13 56 -13 110 1 57 14 69 29
49 57 -12 17 -25 22 -62 22 -26 0 -54 -6 -63 -13z"/>
<path d="M2350 3902 c30 -15 56 -34 58 -42 1 -8 -12 -23 -29 -33 -18 -10 -30
-20 -27 -22 7 -7 77 29 78 41 0 25 -82 84 -117 84 -10 0 7 -13 37 -28z"/>
<path d="M3580 3908 c-18 -13 -39 -33 -47 -44 -13 -21 -12 -23 24 -40 29 -15
37 -24 36 -42 -2 -13 1 -21 7 -17 22 13 9 46 -26 67 l-35 21 22 23 c12 13 40
30 63 38 34 12 37 15 15 15 -14 1 -41 -9 -59 -21z"/>
<path d="M3198 3888 c-16 -5 -28 -13 -28 -18 0 -4 19 -1 43 7 26 9 60 13 90 9
29 -3 45 -1 42 4 -8 13 -112 11 -147 -2z"/>
<path d="M2605 3881 c-15 -7 -4 -10 42 -10 34 -1 74 -6 89 -11 15 -6 29 -8 32
-6 18 18 -130 42 -163 27z"/>
<path d="M2990 3796 c0 -2 7 -20 15 -39 17 -42 12 -64 -24 -94 -14 -13 -21
-23 -15 -23 6 0 23 11 38 25 30 27 33 62 11 105 -14 26 -25 38 -25 26z"/>
<path d="M3618 3570 c9 -147 9 -410 -1 -440 -8 -24 -8 -25 9 -5 14 18 16 46
10 261 -3 133 -10 252 -15 265 -7 16 -8 -10 -3 -81z"/>
<path d="M3070 3567 c-48 -22 -147 -29 -225 -15 l-40 7 30 -14 c46 -22 164
-19 230 6 30 11 55 25 55 30 0 5 -1 9 -2 8 -2 0 -23 -10 -48 -22z"/>
<path d="M2191 3394 c-34 -48 -59 -90 -56 -92 3 -3 6 -3 8 -1 40 52 117 172
114 176 -3 2 -32 -35 -66 -83z"/>
<path d="M2322 3393 c-61 -83 -96 -142 -89 -149 3 -3 12 7 20 23 8 15 40 63
71 107 31 43 55 80 53 83 -3 2 -27 -27 -55 -64z"/>
<path d="M3325 3360 c-3 -5 -1 -10 4 -10 6 0 11 5 11 10 0 6 -2 10 -4 10 -3 0
-8 -4 -11 -10z"/>
<path d="M3285 3340 c-3 -5 -2 -10 4 -10 5 0 13 5 16 10 3 6 2 10 -4 10 -5 0
-13 -4 -16 -10z"/>
<path d="M3291 3314 c-19 -13 -39 -20 -44 -17 -6 3 -7 1 -4 -4 8 -13 -20 -26
-36 -16 -7 3 -9 2 -4 -2 13 -15 -65 -44 -108 -41 -33 3 -35 3 -10 -3 27 -7 23
-8 -29 -15 -32 -5 -90 -6 -127 -3 -38 3 -69 2 -69 -2 0 -14 40 -21 120 -21
117 0 241 43 323 111 41 35 33 44 -12 13z"/>
<path d="M2705 3309 c-4 -6 -5 -12 -2 -15 2 -3 7 2 10 11 7 17 1 20 -8 4z"/>
<path d="M3202 3301 c-11 -6 -9 -9 6 -13 15 -4 19 -2 15 8 -6 16 -4 16 -21 5z"/>
<path d="M2753 3273 c9 -2 25 -2 35 0 9 3 1 5 -18 5 -19 0 -27 -2 -17 -5z"/>
<path d="M3113 3263 c9 -2 23 -2 30 0 6 3 -1 5 -18 5 -16 0 -22 -2 -12 -5z"/>
<path d="M3285 3200 c0 -38 3 -70 8 -70 4 0 7 32 7 70 0 39 -3 70 -7 70 -5 0
-8 -31 -8 -70z"/>
<path d="M2851 3245 c13 -13 21 -15 35 -6 17 9 17 10 2 11 -9 0 -25 3 -35 6
-17 6 -17 6 -2 -11z"/>
<path d="M2785 3240 c-3 -5 -2 -10 4 -10 5 0 13 5 16 10 3 6 2 10 -4 10 -5 0
-13 -4 -16 -10z"/>
<path d="M2723 3190 c0 -30 2 -43 4 -27 2 15 2 39 0 55 -2 15 -4 2 -4 -28z"/>
<path d="M2958 3223 c6 -2 18 -2 25 0 6 3 1 5 -13 5 -14 0 -19 -2 -12 -5z"/>
<path d="M2753 3170 c0 -25 2 -35 4 -22 2 12 2 32 0 45 -2 12 -4 2 -4 -23z"/>
<path d="M2885 3090 c30 -8 172 -13 164 -6 -2 2 -47 5 -99 8 -52 3 -81 2 -65
-2z"/>
<path d="M2415 2931 c-23 -10 -54 -31 -70 -46 -17 -15 -43 -34 -58 -42 -19 -9
-26 -20 -23 -31 10 -32 128 -487 142 -545 55 -230 89 -535 81 -736 -5 -119 -4
-142 7 -130 19 20 252 304 306 372 25 31 50 55 56 54 7 -1 72 -57 145 -123
260 -236 382 -344 389 -344 3 0 28 15 56 32 62 41 109 41 255 -1 80 -23 143
-33 255 -41 261 -18 350 -30 436 -61 190 -67 274 -147 367 -349 11 -24 11 -24
6 5 -20 105 -145 253 -267 315 -37 19 -66 36 -64 37 1 1 38 -7 81 -18 132 -32
226 -75 263 -119 11 -13 12 -12 8 5 -2 11 -7 47 -11 80 -29 263 -168 858 -270
1159 -32 95 -113 201 -210 273 -72 55 -94 65 -301 144 l-162 61 -39 -21 -39
-20 -12 32 c-15 41 -57 66 -122 74 l-51 6 7 -93 c6 -74 4 -94 -7 -101 -8 -5
-68 -27 -134 -48 -297 -98 -596 -96 -831 5 l-87 37 7 99 7 98 -38 0 c-21 0
-56 -9 -78 -19z"/>
<path d="M1858 2739 c-124 -93 -209 -225 -253 -394 -48 -185 -102 -489 -129
-725 -27 -235 -30 -208 28 -245 65 -41 117 -68 122 -62 2 2 -10 34 -27 72 -16
37 -28 73 -26 79 6 15 146 90 154 83 2 -3 9 -39 14 -80 12 -100 42 -214 73
-280 26 -53 95 -142 96 -121 0 6 -11 21 -24 33 -59 56 -118 239 -138 428 -14
136 -7 203 51 453 60 261 141 721 141 802 0 15 -16 7 -82 -43z"/>
<path d="M940 1720 c0 -5 5 -10 10 -10 6 0 10 5 10 10 0 6 -4 10 -10 10 -5 0
-10 -4 -10 -10z"/>
<path d="M5252 1628 c-14 -18 -29 -358 -18 -398 7 -24 5 -40 -7 -64 -9 -17
-20 -65 -25 -106 l-8 -75 -44 138 c-27 83 -49 137 -57 137 -17 0 -18 6 22
-128 19 -64 41 -143 50 -174 l16 -58 48 0 48 0 5 113 c4 83 2 119 -8 139 -18
35 -18 68 0 82 17 13 39 360 24 389 -10 20 -31 22 -46 5z"/>
<path d="M770 1520 l0 -50 -36 0 c-71 0 -74 -6 -74 -139 l0 -119 77 -8 c43 -4
137 -4 210 -1 l133 5 0 -394 0 -394 -27 -12 c-45 -19 -299 -16 -350 4 l-43 17
0 -114 0 -115 -332 -2 -333 -3 328 -2 c281 -3 327 -5 327 -18 0 -8 -5 -15 -12
-15 -33 0 46 -43 121 -66 47 -14 96 -30 109 -35 27 -11 117 -10 152 1 21 7 22
8 5 10 -26 2 81 32 122 33 17 1 29 5 27 9 -3 4 -4 304 -4 667 0 742 6 691 -76
691 l-44 0 0 50 c0 41 -3 50 -18 50 -10 0 -23 -5 -29 -11 -13 -13 -173 -13
-187 1 -5 5 -18 10 -28 10 -15 0 -18 -9 -18 -50z m203 -1457 c-18 -2 -48 -2
-65 0 -18 2 -4 4 32 4 36 0 50 -2 33 -4z"/>
<path d="M3455 1328 c-22 -17 -59 -50 -82 -72 l-43 -40 1 -86 c0 -47 4 -94 9
-105 6 -12 7 18 3 80 l-5 100 53 50 c30 28 70 62 89 77 19 15 30 27 25 28 -6
0 -28 -14 -50 -32z"/>
<path d="M2455 1282 c-9 -31 -19 -66 -22 -77 -15 -53 -76 -154 -115 -192 -69
-66 -118 -87 -207 -86 -42 0 -82 2 -90 4 -11 3 -22 -67 -55 -361 l-41 -365
-225 -5 -225 -6 222 -2 c181 -2 224 -5 237 -17 16 -17 66 -21 66 -5 0 16 2077
14 2083 -2 4 -10 8 -9 16 2 9 13 66 16 373 20 l363 6 -347 2 -346 2 -11 33
c-6 17 -42 142 -81 277 -39 135 -73 251 -75 258 -3 8 -51 -43 -114 -121 -140
-171 -174 -207 -198 -207 -10 0 -72 43 -137 96 -163 133 -296 234 -308 234 -6
0 -28 18 -49 40 -35 36 -41 39 -59 28 -27 -17 -55 1 -55 36 0 25 -105 110
-512 412 l-72 54 -16 -58z m1645 -1092 c0 -5 -4 -10 -10 -10 -5 0 -10 5 -10
10 0 6 5 10 10 10 6 0 10 -4 10 -10z"/>
<path d="M259 1127 c-41 -56 -82 -113 -91 -127 -8 -14 -32 -51 -52 -82 -20
-32 -34 -58 -31 -58 3 0 25 30 49 68 61 91 163 231 192 263 13 14 24 28 24 32
0 20 -22 -3 -91 -96z"/>
<path d="M5581 1213 c0 -4 50 -44 111 -88 61 -44 143 -106 182 -138 l71 -59
-65 62 c-99 94 -301 244 -299 223z"/>
<path d="M6051 1199 c79 -121 152 -257 184 -342 10 -26 20 -45 22 -43 3 2 -17
54 -43 115 -52 122 -143 282 -165 290 -10 3 -10 -1 2 -20z"/>
<path d="M3221 1184 c-2 -49 34 -222 44 -212 2 2 -6 58 -19 124 -13 65 -24
105 -25 88z"/>
<path d="M3166 1172 c-5 -8 -25 -213 -26 -260 0 -7 5 -10 10 -7 6 3 10 34 11
68 0 34 4 94 8 132 8 71 8 84 -3 67z"/>
<path d="M3682 1091 c115 -102 251 -212 255 -207 3 2 -32 46 -77 98 -54 61
-93 97 -116 105 -19 7 -47 19 -63 28 -47 24 -47 18 1 -24z"/>
<path d="M340 1044 c-30 -12 -72 -26 -93 -29 -26 -5 -45 -17 -64 -41 -14 -19
-23 -37 -20 -40 17 -17 285 96 273 115 -12 18 -43 17 -96 -5z"/>
<path d="M5556 1029 c-19 -16 -17 -17 51 -33 40 -9 112 -16 160 -16 l88 1 -34
29 c-32 27 -39 29 -139 32 -86 2 -110 0 -126 -13z"/>
<path d="M3664 998 l-19 -23 23 19 c21 18 27 26 19 26 -2 0 -12 -10 -23 -22z"/>
<path d="M3619 943 c-13 -16 -12 -17 4 -4 9 7 17 15 17 17 0 8 -8 3 -21 -13z"/>
<path d="M3574 888 l-19 -23 23 19 c21 18 27 26 19 26 -2 0 -12 -10 -23 -22z"/>
<path d="M5712 905 c3 -3 31 -12 62 -20 31 -8 91 -28 133 -45 45 -17 71 -23
62 -14 -18 18 -205 84 -238 84 -13 0 -22 -2 -19 -5z"/>
<path d="M234 861 c-74 -48 -136 -98 -148 -118 -5 -9 27 11 70 44 44 33 99 71
124 86 25 15 38 27 29 27 -9 0 -42 -17 -75 -39z"/>
<path d="M6120 833 c35 -32 80 -72 99 -90 19 -18 37 -30 39 -28 9 9 -171 175
-190 175 -6 0 17 -26 52 -57z"/>
<path d="M3519 823 c-13 -16 -12 -17 4 -4 16 13 21 21 13 21 -2 0 -10 -8 -17
-17z"/>
<path d="M3479 773 c-13 -16 -12 -17 4 -4 16 13 21 21 13 21 -2 0 -10 -8 -17
-17z"/>
<path d="M6169 687 c34 -41 61 -76 61 -79 0 -3 -66 -8 -147 -11 -82 -3 -158
-9 -170 -12 -39 -12 -25 -23 17 -14 22 5 105 10 184 12 l143 2 -21 31 c-36 54
-111 143 -119 144 -5 0 19 -33 52 -73z"/>
<path d="M95 509 c-44 -11 -84 -25 -90 -31 -7 -8 -3 -9 15 -4 14 4 61 14 105
23 44 8 89 19 100 24 41 16 -49 8 -130 -12z"/>
<path d="M5510 183 c0 -13 3 -14 8 -6 6 10 97 13 378 16 l369 2 -377 3 c-354
2 -378 1 -378 -15z"/>
<path d="M5500 145 c0 -8 4 -15 10 -15 5 0 7 7 4 15 -4 8 -8 15 -10 15 -2 0
-4 -7 -4 -15z"/>
<path d="M1190 122 c0 -4 16 -7 35 -6 24 1 35 -2 35 -12 0 -8 5 -14 10 -14 6
0 9 6 8 13 -2 8 14 12 54 12 31 0 60 3 64 8 4 4 -41 7 -99 7 -59 0 -107 -3
-107 -8z"/>
<path d="M655 110 c-3 -5 1 -10 10 -10 9 0 13 5 10 10 -3 6 -8 10 -10 10 -2 0
-7 -4 -10 -10z"/>
<path d="M5488 113 c7 -3 16 -2 19 1 4 3 -2 6 -13 5 -11 0 -14 -3 -6 -6z"/>
<path d="M4800 96 c0 -9 5 -16 10 -16 6 0 10 4 10 9 0 6 -4 13 -10 16 -5 3
-10 -1 -10 -9z"/>
<path d="M5054 86 c-8 -8 -7 -15 3 -25 8 -7 17 -10 21 -6 3 3 0 10 -8 15 -11
7 -6 10 19 10 38 0 39 4 1 13 -14 3 -30 0 -36 -7z"/>
<path d="M5365 83 c-38 -8 -94 -12 -150 -10 -71 4 -81 2 -50 -5 22 -5 78 -7
125 -4 120 8 139 10 134 18 -2 3 2 9 8 11 22 9 -4 5 -67 -10z"/>
<path d="M1068 73 c7 -3 16 -2 19 1 4 3 -2 6 -13 5 -11 0 -14 -3 -6 -6z"/>
<path d="M4908 53 c18 -2 45 -2 60 0 15 2 0 4 -33 4 -33 0 -45 -2 -27 -4z"/>
<path d="M4838 43 c7 -3 16 -2 19 1 4 3 -2 6 -13 5 -11 0 -14 -3 -6 -6z"/>
<path d="M4990 29 c-14 -6 -47 -7 -75 -3 -56 7 -59 -1 -5 -11 42 -7 130 3 130
16 0 11 -18 11 -50 -2z"/>
<path d="M1220 9 c-14 -4 67 -7 179 -8 112 -1 202 1 199 4 -8 8 -351 12 -378
4z"/>
</g>
</svg>
