<?xml version="1.0" standalone="no"?>
<!DOCTYPE svg PUBLIC "-//W3C//DTD SVG 20010904//EN"
 "http://www.w3.org/TR/2001/REC-SVG-20010904/DTD/svg10.dtd">
<svg version="1.0" xmlns="http://www.w3.org/2000/svg"
 width="626.000000pt" height="626.000000pt" viewBox="0 0 626.000000 626.000000"
 preserveAspectRatio="xMidYMid meet">

<g transform="translate(0.000000,626.000000) scale(0.100000,-0.100000)"
fill="#000000" stroke="none">
<path d="M3034 5156 c-14 -11 -36 -13 -80 -9 -93 9 -152 -3 -187 -38 -28 -28
-29 -34 -24 -87 3 -31 8 -64 12 -73 5 -13 -2 -18 -33 -22 -100 -17 -265 -130
-366 -253 -30 -37 -69 -75 -86 -85 -101 -62 -92 -209 24 -368 19 -26 38 -69
45 -99 14 -67 58 -153 118 -233 83 -109 98 -143 113 -243 l8 -51 1 65 c1 80
-22 134 -104 240 -56 73 -125 200 -125 229 0 9 16 0 40 -24 l41 -40 -17 45
c-9 25 -18 88 -21 141 l-6 96 97 -5 c115 -6 227 10 315 45 l63 25 40 -22 c29
-16 50 -21 78 -17 l38 5 38 -74 c40 -76 54 -90 54 -53 0 28 53 79 83 79 56 0
116 -93 104 -163 -4 -26 -1 -36 14 -45 24 -15 24 -54 0 -76 -11 -10 -24 -44
-31 -79 -13 -70 -68 -203 -99 -243 -26 -33 -28 -53 -3 -31 10 10 22 15 25 12
4 -3 5 -2 3 1 -2 3 30 36 73 73 128 114 281 293 281 331 0 5 -7 10 -15 10 -11
0 -9 11 10 53 15 31 25 70 25 97 -1 58 -36 160 -80 234 -34 55 -157 183 -230
238 l-35 26 26 21 c39 30 53 72 46 140 -6 71 -33 126 -86 174 -68 62 -145 83
-187 53z m256 -297 c-15 -35 -55 -69 -81 -69 -32 0 -29 17 9 41 20 13 46 38
57 55 24 37 33 19 15 -27z m-455 -419 c3 -5 -11 -16 -31 -25 -49 -20 -222 -55
-271 -54 -24 0 -1 7 62 18 107 19 201 47 210 62 8 12 22 12 30 -1z m723 -184
c-5 -64 -47 -136 -78 -136 -27 0 -26 5 14 52 20 23 40 61 47 89 7 27 15 49 17
49 3 0 2 -24 0 -54z"/>
<path d="M2769 4235 c-40 -14 -114 -59 -123 -73 -16 -26 38 -15 95 19 50 29
80 39 134 45 58 6 65 9 40 15 -48 11 -107 9 -146 -6z"/>
<path d="M3189 4209 c-6 -13 -8 -36 -4 -58 4 -20 10 -29 13 -21 2 8 14 25 25
38 21 23 11 31 -12 10 -11 -11 -13 -7 -9 20 5 37 3 40 -13 11z"/>
<path d="M3908 4193 c6 -2 18 -2 25 0 6 3 1 5 -13 5 -14 0 -19 -2 -12 -5z"/>
<path d="M3788 4163 c7 -3 16 -2 19 1 4 3 -2 6 -13 5 -11 0 -14 -3 -6 -6z"/>
<path d="M3740 4150 c-8 -5 -10 -10 -5 -10 6 0 17 5 25 10 8 5 11 10 5 10 -5
0 -17 -5 -25 -10z"/>
<path d="M2471 4095 c-31 -35 -41 -78 -21 -90 6 -3 10 3 10 14 0 22 47 64 65
57 7 -2 10 6 7 25 -6 38 -23 37 -61 -6z"/>
<path d="M2913 4051 c-18 -15 -54 -38 -80 -51 -34 -17 -43 -25 -30 -28 26 -5
108 39 131 70 27 38 18 42 -21 9z"/>
<path d="M2470 3981 c0 -6 4 -13 10 -16 6 -3 7 1 4 9 -7 18 -14 21 -14 7z"/>
<path d="M2572 3883 c-30 -11 -41 -18 -33 -26 12 -12 82 12 89 31 5 15 -2 14
-56 -5z"/>
<path d="M3005 3851 c-3 -5 -28 -17 -56 -26 -28 -10 -53 -23 -56 -31 -3 -8
-11 -14 -19 -14 -7 0 -18 -9 -24 -20 -15 -29 7 -60 43 -60 40 0 64 15 84 53
26 48 51 135 28 98z"/>
<path d="M2765 3805 l-40 -24 31 -1 c32 0 59 20 52 40 -1 5 -21 -1 -43 -15z"/>
<path d="M2610 3765 c13 -14 26 -25 28 -25 3 0 -5 11 -18 25 -13 14 -26 25
-28 25 -3 0 5 -11 18 -25z"/>
<path d="M4009 3643 c-13 -16 -12 -17 4 -4 9 7 17 15 17 17 0 8 -8 3 -21 -13z"/>
<path d="M3869 3503 l-24 -28 28 24 c25 23 32 31 24 31 -2 0 -14 -12 -28 -27z"/>
<path d="M4190 3505 c-1 -31 31 -53 89 -59 91 -10 346 -8 431 4 215 31 327 20
415 -37 22 -15 34 -19 26 -10 -7 9 -38 29 -69 44 -48 23 -72 28 -159 31 -57 3
-144 -1 -195 -7 -160 -18 -293 -24 -402 -16 -101 7 -107 8 -121 33 -8 15 -14
22 -15 17z"/>
<path d="M3782 3451 c2 -5 -6 -17 -17 -26 -20 -16 -20 -16 2 -5 27 13 36 27
23 35 -6 4 -9 2 -8 -4z"/>
<path d="M3684 3374 c-18 -14 -18 -15 4 -4 12 6 22 13 22 15 0 8 -5 6 -26 -11z"/>
<path d="M3618 3344 c-39 -21 -35 -28 5 -8 37 19 44 24 31 24 -5 -1 -21 -8
-36 -16z"/>
<path d="M3692 3185 c-11 -14 -26 -49 -32 -78 -6 -29 -21 -72 -34 -97 -13 -25
-29 -70 -35 -100 -13 -61 -37 -104 -52 -95 -5 4 -8 1 -7 -7 2 -7 -5 -12 -15
-11 -10 0 -23 -9 -29 -22 -6 -13 -24 -29 -40 -36 -15 -6 -38 -25 -50 -41 -19
-28 -24 -29 -67 -23 l-46 6 26 -18 c14 -10 51 -35 82 -55 31 -21 58 -42 62
-48 14 -23 23 -8 13 21 -9 26 -7 37 11 69 11 21 21 46 21 57 0 11 15 37 33 59
18 21 61 76 95 121 62 82 63 83 47 112 -20 40 -20 48 15 132 16 40 28 75 26
76 -2 2 -13 -8 -24 -22z"/>
<path d="M3990 3155 c-18 -19 -32 -36 -29 -38 2 -2 19 14 38 35 42 48 36 50
-9 3z"/>
<path d="M2767 3173 c18 -2 50 -2 70 0 21 2 7 4 -32 4 -38 0 -55 -2 -38 -4z"/>
<path d="M3783 3172 c-12 -7 -25 -62 -37 -145 -4 -32 -3 -35 9 -23 8 7 17 38
20 67 4 30 11 66 15 82 5 15 8 27 7 27 -1 0 -7 -4 -14 -8z"/>
<path d="M2713 3100 c0 -25 2 -35 4 -22 2 12 2 32 0 45 -2 12 -4 2 -4 -23z"/>
<path d="M3861 3109 c-6 -18 -11 -41 -11 -52 0 -11 -8 -29 -17 -40 -18 -20
-18 -20 8 -3 18 11 28 29 33 55 3 22 9 46 12 55 3 9 2 16 -4 16 -6 0 -15 -14
-21 -31z"/>
<path d="M3925 3049 c-4 -6 -5 -12 -2 -15 2 -3 7 2 10 11 7 17 1 20 -8 4z"/>
<path d="M2722 3005 c0 -16 2 -22 5 -12 2 9 2 23 0 30 -3 6 -5 -1 -5 -18z"/>
<path d="M3710 2990 c0 -5 5 -10 11 -10 5 0 7 5 4 10 -3 6 -8 10 -11 10 -2 0
-4 -4 -4 -10z"/>
<path d="M2733 2885 c0 -27 2 -38 4 -22 2 15 2 37 0 50 -2 12 -4 0 -4 -28z"/>
<path d="M2721 2714 c0 -11 3 -14 6 -6 3 7 2 16 -1 19 -3 4 -6 -2 -5 -13z"/>
<path d="M2722 2630 c0 -19 2 -27 5 -17 2 9 2 25 0 35 -3 9 -5 1 -5 -18z"/>
<path d="M3281 2647 c2 -1 13 -9 24 -17 19 -14 19 -14 6 3 -7 9 -18 17 -24 17
-6 0 -8 -1 -6 -3z"/>
<path d="M3330 2617 c0 -3 21 -20 48 -39 85 -61 98 -62 17 -1 -47 35 -65 46
-65 40z"/>
<path d="M2713 2435 c0 -44 2 -61 4 -37 2 23 2 59 0 80 -2 20 -4 1 -4 -43z"/>
<path d="M3640 2348 c-37 -214 -118 -388 -229 -492 -17 -17 -31 -37 -31 -45 0
-9 19 -74 42 -145 41 -122 45 -129 80 -147 20 -10 43 -19 51 -19 7 0 29 -16
48 -36 18 -20 50 -44 70 -54 45 -23 62 -49 99 -149 29 -79 30 -115 4 -125 -26
-10 -40 4 -87 82 -25 42 -57 88 -71 101 -14 14 -26 29 -26 34 0 14 -51 79 -57
73 -3 -2 13 -31 34 -63 22 -32 52 -93 68 -136 33 -92 68 -130 162 -178 52 -26
73 -31 130 -31 73 1 203 36 260 71 l32 20 40 -30 c47 -34 71 -35 277 -18 216
17 216 18 63 64 -138 42 -165 59 -141 93 26 35 62 119 78 182 19 72 23 254 6
305 -8 24 -9 18 -5 -31 7 -76 -18 -197 -57 -275 -27 -53 -32 -57 -105 -88
-116 -49 -195 -63 -310 -59 -120 5 -196 34 -291 109 -101 80 -210 240 -259
380 -14 39 -13 43 14 97 41 82 79 210 101 337 20 121 34 245 27 245 -2 0 -10
-33 -17 -72z"/>
<path d="M2106 1896 c203 -60 331 -119 414 -193 31 -26 69 -58 85 -69 l29 -22
-32 -63 c-22 -44 -71 -105 -152 -191 -66 -70 -120 -131 -120 -135 1 -15 239
237 264 279 30 51 79 178 72 186 -3 2 -10 -7 -15 -22 -6 -14 -14 -26 -19 -26
-5 0 -40 27 -78 60 -71 62 -153 111 -239 144 -76 29 -277 86 -300 86 -11 -1
30 -16 91 -34z"/>
<path d="M3030 1431 c0 -10 91 -44 98 -36 3 2 -7 9 -22 15 -14 5 -37 14 -51
20 -14 5 -25 6 -25 1z"/>
<path d="M3483 1259 c47 -132 97 -252 104 -245 5 5 -127 348 -139 361 -5 6 11
-46 35 -116z"/>
<path d="M3340 1315 c35 -92 150 -323 150 -302 0 14 -142 317 -151 323 -5 3
-4 -7 1 -21z"/>
</g>
</svg>
